<svg xmlns="http://www.w3.org/2000/svg" xmlns:xlink="http://www.w3.org/1999/xlink" width="526" zoomAndPan="magnify" viewBox="0 0 394.5 87.749997" height="117" preserveAspectRatio="xMidYMid meet" version="1.0"><defs><g/><clipPath id="0bc4021cec"><path d="M 0.3125 0 L 393.691406 0 L 393.691406 87.5 L 0.3125 87.5 Z M 0.3125 0 " clip-rule="nonzero"/></clipPath><clipPath id="714a26fb46"><path d="M 105.417969 26.898438 L 142.394531 26.898438 L 142.394531 63.871094 L 105.417969 63.871094 Z M 105.417969 26.898438 " clip-rule="nonzero"/></clipPath><clipPath id="b26d9d3288"><path d="M 123.90625 26.898438 C 113.695312 26.898438 105.417969 35.175781 105.417969 45.386719 C 105.417969 55.59375 113.695312 63.871094 123.90625 63.871094 C 134.117188 63.871094 142.394531 55.59375 142.394531 45.386719 C 142.394531 35.175781 134.117188 26.898438 123.90625 26.898438 Z M 123.90625 26.898438 " clip-rule="nonzero"/></clipPath><clipPath id="f07b912ab8"><path d="M 111.699219 30.246094 L 140.425781 30.246094 L 140.425781 58.972656 L 111.699219 58.972656 Z M 111.699219 30.246094 " clip-rule="nonzero"/></clipPath><clipPath id="d6d3401eb1"><path d="M 63 33 L 87 33 L 87 58 L 63 58 Z M 63 33 " clip-rule="nonzero"/></clipPath><clipPath id="b3546318b0"><path d="M 62.042969 34.339844 L 85.65625 32.914062 L 87.085938 56.527344 L 63.472656 57.953125 Z M 62.042969 34.339844 " clip-rule="nonzero"/></clipPath><clipPath id="ea352b3bc5"><path d="M 62.042969 34.339844 L 85.65625 32.914062 L 87.085938 56.527344 L 63.472656 57.953125 Z M 62.042969 34.339844 " clip-rule="nonzero"/></clipPath></defs><g clip-path="url(#0bc4021cec)"><path fill="#ffffff" d="M 0.3125 0 L 393.691406 0 L 393.691406 87.5 L 0.3125 87.5 Z M 0.3125 0 " fill-opacity="1" fill-rule="nonzero"/></g><g clip-path="url(#714a26fb46)"><g clip-path="url(#b26d9d3288)"><path fill="#daaf3e" d="M 105.417969 26.898438 L 142.394531 26.898438 L 142.394531 63.871094 L 105.417969 63.871094 Z M 105.417969 26.898438 " fill-opacity="1" fill-rule="nonzero"/></g></g><g clip-path="url(#f07b912ab8)"><path fill="#000000" d="M 126.632812 48.246094 L 140.417969 38.335938 L 129.128906 40.96875 L 127.71875 30.246094 L 120.636719 42.953125 L 115.078125 44.25 L 118.488281 46.808594 L 111.707031 58.972656 L 123.449219 50.535156 L 131.148438 56.320312 L 130.710938 52.980469 L 123.507812 48.003906 L 118.390625 51.851562 L 125.3125 39.421875 Z M 126.632812 48.246094 " fill-opacity="1" fill-rule="evenodd"/></g><g fill="#000000" fill-opacity="1"><g transform="translate(17.469969, 59.575839)"><g><path d="M 33.5 -28 C 32.3125 -26.445312 30.503906 -26.320312 28.078125 -27.625 C 25.648438 -28.925781 23.082031 -29.578125 20.375 -29.578125 C 17.675781 -29.578125 15.769531 -28.890625 14.65625 -27.515625 C 13.550781 -26.148438 15.75 -24.191406 21.25 -21.640625 C 26.757812 -19.097656 29.488281 -15.660156 29.4375 -11.328125 C 29.382812 -7.003906 25.757812 -3.429688 18.5625 -0.609375 C 11.363281 2.210938 6.316406 3.273438 3.421875 2.578125 C 0.535156 1.878906 -0.835938 0.671875 -0.703125 -1.046875 C -0.578125 -2.765625 -0.269531 -3.835938 0.21875 -4.265625 C 0.71875 -4.703125 1.867188 -4.664062 3.671875 -4.15625 C 5.484375 -3.644531 8.609375 -3.789062 13.046875 -4.59375 C 17.484375 -5.394531 20.425781 -6.515625 21.875 -7.953125 C 23.332031 -9.398438 23.160156 -10.828125 21.359375 -12.234375 C 19.554688 -13.648438 16.476562 -15.503906 12.125 -17.796875 C 7.769531 -20.097656 5.773438 -23.039062 6.140625 -26.625 C 6.515625 -30.21875 9.828125 -32.691406 16.078125 -34.046875 C 22.335938 -35.410156 27.101562 -35.128906 30.375 -33.203125 C 33.644531 -31.285156 34.6875 -29.550781 33.5 -28 Z M 33.5 -28 "/></g></g></g><g fill="#000000" fill-opacity="1"><g transform="translate(46.952604, 59.575839)"><g><path d="M 8.328125 -31.015625 L 9.546875 -31.015625 C 11.554688 -29.992188 12.851562 -28.863281 13.4375 -27.625 L 13.890625 -26.890625 L 13.890625 -25.90625 L 13.671875 -23 C 18.191406 -23 21.332031 -23.398438 23.09375 -24.203125 L 23.734375 -24.46875 C 24.734375 -24.925781 24.816406 -24.347656 23.984375 -22.734375 C 23.160156 -21.128906 21.351562 -20.003906 18.5625 -19.359375 C 15.769531 -18.722656 13.644531 -18.566406 12.1875 -18.890625 C 8.8125 -12.234375 7.125 -7.625 7.125 -5.0625 L 7.125 -2.921875 C 7.125 -2.671875 7.320312 -2.234375 7.71875 -1.609375 C 8.125 -0.984375 8.804688 -0.671875 9.765625 -0.671875 C 10.734375 -0.671875 11.769531 -0.910156 12.875 -1.390625 C 13.988281 -1.867188 15.054688 -2.535156 16.078125 -3.390625 L 16.5625 -2.65625 L 16.5625 -2.171875 C 16.5625 -1.285156 14.625 -0.234375 10.75 0.984375 L 9.546875 0.984375 C 6.523438 0.984375 4.257812 -1.109375 2.75 -5.296875 L 2.25 -7.484375 L 2.25 -10.15625 C 2.25 -12.550781 3.066406 -15.785156 4.703125 -19.859375 L 4.703125 -20.09375 C 4.015625 -20.269531 2.726562 -20.753906 0.84375 -21.546875 C -1.46875 -22.742188 -2.929688 -23.875 -3.546875 -24.9375 L -3.046875 -25.203125 C -0.515625 -24.535156 1.820312 -24.046875 3.96875 -23.734375 L 5.4375 -23.734375 L 5.90625 -23.5 C 7.03125 -25.914062 7.757812 -27.851562 8.09375 -29.3125 L 8.09375 -29.546875 L 7.828125 -30.75 Z M 8.328125 -31.015625 "/></g></g></g><g fill="#000000" fill-opacity="1"><g transform="translate(63.465931, 59.575839)"><g/></g></g><g fill="#000000" fill-opacity="1"><g transform="translate(74.366352, 59.575839)"><g/></g></g><g fill="#000000" fill-opacity="1"><g transform="translate(85.280668, 59.575839)"><g><path d="M 3.4375 -20.953125 C 5.40625 -20.035156 6.390625 -18.847656 6.390625 -17.390625 L 6.390625 -15.625 C 8.367188 -17.726562 10.925781 -18.78125 14.0625 -18.78125 C 16.144531 -18.78125 17.984375 -17.921875 19.578125 -16.203125 C 19.828125 -15.523438 19.566406 -15.195312 18.796875 -15.21875 C 18.703125 -15.21875 18.3125 -15.289062 17.625 -15.4375 C 12.738281 -16.738281 9.023438 -14.304688 6.484375 -8.140625 C 5.109375 -3.441406 4.15625 -0.0820312 3.625 1.9375 L 3.21875 2.125 L 2.828125 2.125 C -0.285156 1.382812 -1.460938 -1.050781 -0.703125 -5.1875 C 1.140625 -9.25 2.445312 -12.859375 3.21875 -16.015625 C 3.550781 -16.378906 3.816406 -17.226562 4.015625 -18.5625 C 3.296875 -19.425781 2.300781 -19.726562 1.03125 -19.46875 C -0.226562 -19.207031 -0.800781 -19.351562 -0.6875 -19.90625 C -0.570312 -20.46875 0.015625 -20.75 1.078125 -20.75 C 1.992188 -20.882812 2.78125 -20.953125 3.4375 -20.953125 Z M 3.4375 -20.953125 "/></g></g></g><g clip-path="url(#d6d3401eb1)"><g clip-path="url(#b3546318b0)"><g clip-path="url(#ea352b3bc5)"><path fill="#c49736" d="M 75.183594 48.328125 L 86.003906 39.535156 L 76.871094 42.25 L 75.183594 33.546875 L 70 44.292969 L 65.503906 45.632812 L 68.429688 47.558594 L 63.464844 57.847656 L 72.683594 50.359375 L 79.289062 54.710938 L 78.761719 52.003906 L 72.609375 48.285156 L 68.597656 51.691406 L 73.660156 41.171875 Z M 75.183594 48.328125 " fill-opacity="1" fill-rule="evenodd"/></g></g></g><g fill="#000000" fill-opacity="1"><g transform="translate(142.428244, 63.38719)"><g><path d="M 15.140625 -16.953125 L 12.15625 -16.953125 C 12.0625 -15.816406 11.957031 -14.546875 11.84375 -13.140625 C 11.726562 -11.734375 11.613281 -10.328125 11.5 -8.921875 C 11.382812 -7.515625 11.285156 -6.222656 11.203125 -5.046875 C 11.117188 -3.867188 11.039062 -2.910156 10.96875 -2.171875 C 10.90625 -1.441406 10.875 -1.046875 10.875 -0.984375 C 10.84375 -0.585938 10.757812 -0.320312 10.625 -0.1875 C 10.5 -0.0625 10.222656 0 9.796875 0 L 8.03125 0 C 6.269531 0 5.035156 -0.414062 4.328125 -1.25 C 3.628906 -2.082031 3.28125 -3.332031 3.28125 -5 C 3.28125 -5.289062 3.320312 -6.046875 3.40625 -7.265625 C 3.488281 -8.492188 3.59375 -9.972656 3.71875 -11.703125 C 3.851562 -13.441406 3.988281 -15.191406 4.125 -16.953125 L 1.8125 -16.953125 C 1.457031 -16.953125 1.28125 -17.132812 1.28125 -17.5 C 1.28125 -17.757812 1.296875 -18.140625 1.328125 -18.640625 C 1.359375 -19.148438 1.390625 -19.648438 1.421875 -20.140625 C 1.453125 -20.703125 1.539062 -21.234375 1.6875 -21.734375 C 1.832031 -22.242188 2.132812 -22.671875 2.59375 -23.015625 C 3.050781 -23.359375 3.738281 -23.546875 4.65625 -23.578125 L 4.859375 -25.53125 C 5.148438 -28.375 5.773438 -30.613281 6.734375 -32.25 C 7.703125 -33.882812 9.007812 -35.046875 10.65625 -35.734375 C 12.3125 -36.421875 14.25 -36.765625 16.46875 -36.765625 C 19.769531 -36.765625 22.101562 -36.207031 23.46875 -35.09375 C 24.84375 -33.976562 25.53125 -32.585938 25.53125 -30.921875 C 25.53125 -29.222656 25 -28.015625 23.9375 -27.296875 C 22.875 -26.578125 21.445312 -26.21875 19.65625 -26.21875 C 19.164062 -26.21875 18.828125 -26.257812 18.640625 -26.34375 C 18.460938 -26.425781 18.375 -26.613281 18.375 -26.90625 C 18.375 -27.988281 18.273438 -28.835938 18.078125 -29.453125 C 17.890625 -30.078125 17.351562 -30.390625 16.46875 -30.390625 C 15.582031 -30.390625 14.878906 -30.0625 14.359375 -29.40625 C 13.835938 -28.75 13.453125 -27.898438 13.203125 -26.859375 C 12.960938 -25.816406 12.773438 -24.722656 12.640625 -23.578125 L 18.28125 -23.578125 C 18.800781 -23.578125 19.0625 -23.347656 19.0625 -22.890625 L 18.875 -20.25 C 18.800781 -19.257812 18.523438 -18.460938 18.046875 -17.859375 C 17.578125 -17.253906 16.609375 -16.953125 15.140625 -16.953125 Z M 15.140625 -16.953125 "/></g></g></g><g fill="#000000" fill-opacity="1"><g transform="translate(164.528788, 63.38719)"><g><path d="M 15.140625 -16.953125 L 12.15625 -16.953125 C 12.0625 -15.816406 11.957031 -14.546875 11.84375 -13.140625 C 11.726562 -11.734375 11.613281 -10.328125 11.5 -8.921875 C 11.382812 -7.515625 11.285156 -6.222656 11.203125 -5.046875 C 11.117188 -3.867188 11.039062 -2.910156 10.96875 -2.171875 C 10.90625 -1.441406 10.875 -1.046875 10.875 -0.984375 C 10.84375 -0.585938 10.757812 -0.320312 10.625 -0.1875 C 10.5 -0.0625 10.222656 0 9.796875 0 L 8.03125 0 C 6.269531 0 5.035156 -0.414062 4.328125 -1.25 C 3.628906 -2.082031 3.28125 -3.332031 3.28125 -5 C 3.28125 -5.289062 3.320312 -6.046875 3.40625 -7.265625 C 3.488281 -8.492188 3.59375 -9.972656 3.71875 -11.703125 C 3.851562 -13.441406 3.988281 -15.191406 4.125 -16.953125 L 1.8125 -16.953125 C 1.457031 -16.953125 1.28125 -17.132812 1.28125 -17.5 C 1.28125 -17.757812 1.296875 -18.140625 1.328125 -18.640625 C 1.359375 -19.148438 1.390625 -19.648438 1.421875 -20.140625 C 1.453125 -20.703125 1.539062 -21.234375 1.6875 -21.734375 C 1.832031 -22.242188 2.132812 -22.671875 2.59375 -23.015625 C 3.050781 -23.359375 3.738281 -23.546875 4.65625 -23.578125 L 4.859375 -25.53125 C 5.148438 -28.375 5.773438 -30.613281 6.734375 -32.25 C 7.703125 -33.882812 9.007812 -35.046875 10.65625 -35.734375 C 12.3125 -36.421875 14.25 -36.765625 16.46875 -36.765625 C 19.769531 -36.765625 22.101562 -36.207031 23.46875 -35.09375 C 24.84375 -33.976562 25.53125 -32.585938 25.53125 -30.921875 C 25.53125 -29.222656 25 -28.015625 23.9375 -27.296875 C 22.875 -26.578125 21.445312 -26.21875 19.65625 -26.21875 C 19.164062 -26.21875 18.828125 -26.257812 18.640625 -26.34375 C 18.460938 -26.425781 18.375 -26.613281 18.375 -26.90625 C 18.375 -27.988281 18.273438 -28.835938 18.078125 -29.453125 C 17.890625 -30.078125 17.351562 -30.390625 16.46875 -30.390625 C 15.582031 -30.390625 14.878906 -30.0625 14.359375 -29.40625 C 13.835938 -28.75 13.453125 -27.898438 13.203125 -26.859375 C 12.960938 -25.816406 12.773438 -24.722656 12.640625 -23.578125 L 18.28125 -23.578125 C 18.800781 -23.578125 19.0625 -23.347656 19.0625 -22.890625 L 18.875 -20.25 C 18.800781 -19.257812 18.523438 -18.460938 18.046875 -17.859375 C 17.578125 -17.253906 16.609375 -16.953125 15.140625 -16.953125 Z M 15.140625 -16.953125 "/></g></g></g><g fill="#000000" fill-opacity="1"><g transform="translate(186.629332, 63.38719)"><g><path d="M 13.328125 0.484375 C 11.921875 0.484375 10.503906 0.304688 9.078125 -0.046875 C 7.660156 -0.410156 6.375 -1.023438 5.21875 -1.890625 C 4.0625 -2.753906 3.128906 -3.925781 2.421875 -5.40625 C 1.722656 -6.894531 1.375 -8.753906 1.375 -10.984375 C 1.375 -11.960938 1.476562 -13.15625 1.6875 -14.5625 C 1.90625 -15.96875 2.296875 -17.410156 2.859375 -18.890625 C 3.429688 -20.378906 4.253906 -21.773438 5.328125 -23.078125 C 6.410156 -24.390625 7.816406 -25.445312 9.546875 -26.25 C 11.285156 -27.050781 13.414062 -27.453125 15.9375 -27.453125 C 18.21875 -27.453125 20.023438 -27.113281 21.359375 -26.4375 C 22.703125 -25.769531 23.664062 -24.878906 24.25 -23.765625 C 24.84375 -22.660156 25.140625 -21.4375 25.140625 -20.09375 C 25.140625 -18.300781 24.722656 -16.820312 23.890625 -15.65625 C 23.054688 -14.5 21.984375 -13.578125 20.671875 -12.890625 C 19.367188 -12.203125 18 -11.691406 16.5625 -11.359375 C 15.125 -11.035156 13.800781 -10.832031 12.59375 -10.75 C 11.382812 -10.675781 10.453125 -10.640625 9.796875 -10.640625 C 9.796875 -9.398438 10.15625 -8.253906 10.875 -7.203125 C 11.59375 -6.160156 12.785156 -5.640625 14.453125 -5.640625 C 15.304688 -5.640625 15.976562 -5.773438 16.46875 -6.046875 C 16.957031 -6.328125 17.335938 -6.640625 17.609375 -6.984375 C 17.890625 -7.328125 18.144531 -7.632812 18.375 -7.90625 C 18.601562 -8.1875 18.882812 -8.328125 19.21875 -8.328125 C 19.445312 -8.328125 19.851562 -8.242188 20.4375 -8.078125 C 21.03125 -7.921875 21.59375 -7.585938 22.125 -7.078125 C 22.664062 -6.578125 22.9375 -5.835938 22.9375 -4.859375 C 22.9375 -3.578125 22.4375 -2.546875 21.4375 -1.765625 C 20.445312 -0.984375 19.210938 -0.410156 17.734375 -0.046875 C 16.265625 0.304688 14.796875 0.484375 13.328125 0.484375 Z M 14.265625 -20.921875 C 13.316406 -20.921875 12.539062 -20.585938 11.9375 -19.921875 C 11.332031 -19.253906 10.878906 -18.429688 10.578125 -17.453125 C 10.285156 -16.472656 10.078125 -15.507812 9.953125 -14.5625 C 11.972656 -14.59375 13.613281 -14.929688 14.875 -15.578125 C 16.132812 -16.234375 16.765625 -17.164062 16.765625 -18.375 C 16.765625 -19.03125 16.554688 -19.617188 16.140625 -20.140625 C 15.734375 -20.660156 15.109375 -20.921875 14.265625 -20.921875 Z M 14.265625 -20.921875 "/></g></g></g><g fill="#000000" fill-opacity="1"><g transform="translate(212.699144, 63.38719)"><g><path d="M 17.84375 -15.25 C 17.476562 -15.25 17.019531 -15.296875 16.46875 -15.390625 C 15.914062 -15.484375 15.640625 -15.644531 15.640625 -15.875 C 15.640625 -16.300781 15.65625 -16.691406 15.6875 -17.046875 C 15.71875 -17.410156 15.734375 -17.789062 15.734375 -18.1875 C 15.734375 -18.90625 15.632812 -19.492188 15.4375 -19.953125 C 15.238281 -20.410156 14.847656 -20.640625 14.265625 -20.640625 C 13.347656 -20.640625 12.585938 -20.039062 11.984375 -18.84375 C 11.378906 -17.65625 10.992188 -15.867188 10.828125 -13.484375 C 10.765625 -12.429688 10.675781 -11.25 10.5625 -9.9375 C 10.445312 -8.632812 10.335938 -7.351562 10.234375 -6.09375 C 10.140625 -4.84375 10.0625 -3.75 10 -2.8125 C 9.9375 -1.882812 9.90625 -1.273438 9.90625 -0.984375 C 9.90625 -0.648438 9.789062 -0.398438 9.5625 -0.234375 C 9.332031 -0.078125 9.085938 0 8.828125 0 L 7.0625 0 C 5.0625 0 3.726562 -0.398438 3.0625 -1.203125 C 2.394531 -2.003906 2.0625 -3.15625 2.0625 -4.65625 C 2.0625 -5.144531 2.082031 -5.835938 2.125 -6.734375 C 2.175781 -7.640625 2.265625 -8.875 2.390625 -10.4375 C 2.523438 -12.007812 2.679688 -14.019531 2.859375 -16.46875 C 3.046875 -18.914062 3.269531 -21.9375 3.53125 -25.53125 C 3.59375 -26.476562 3.9375 -26.953125 4.5625 -26.953125 L 6.46875 -26.953125 C 8.332031 -26.953125 9.609375 -26.582031 10.296875 -25.84375 C 10.984375 -25.113281 11.390625 -24.242188 11.515625 -23.234375 C 12.265625 -24.765625 13.289062 -25.847656 14.59375 -26.484375 C 15.90625 -27.128906 17.085938 -27.453125 18.140625 -27.453125 C 18.984375 -27.453125 19.8125 -27.242188 20.625 -26.828125 C 21.445312 -26.421875 22.128906 -25.800781 22.671875 -24.96875 C 23.210938 -24.132812 23.484375 -23.066406 23.484375 -21.765625 C 23.484375 -19.992188 22.972656 -18.460938 21.953125 -17.171875 C 20.941406 -15.890625 19.570312 -15.25 17.84375 -15.25 Z M 17.84375 -15.25 "/></g></g></g><g fill="#000000" fill-opacity="1"><g transform="translate(236.171775, 63.38719)"><g><path d="M 13.4375 -27.453125 C 16.175781 -27.453125 18.207031 -26.90625 19.53125 -25.8125 C 20.851562 -24.71875 21.515625 -23.316406 21.515625 -21.609375 C 21.515625 -20.210938 21.066406 -19.128906 20.171875 -18.359375 C 19.273438 -17.585938 17.972656 -17.203125 16.265625 -17.203125 C 15.816406 -17.203125 15.507812 -17.25 15.34375 -17.34375 C 15.175781 -17.445312 15.09375 -17.628906 15.09375 -17.890625 C 15.09375 -18.285156 15.035156 -18.742188 14.921875 -19.265625 C 14.804688 -19.785156 14.5625 -20.234375 14.1875 -20.609375 C 13.8125 -20.984375 13.164062 -21.171875 12.25 -21.171875 C 11.332031 -21.171875 10.597656 -20.945312 10.046875 -20.5 C 9.492188 -20.0625 9.21875 -19.519531 9.21875 -18.875 C 9.21875 -18.1875 9.492188 -17.628906 10.046875 -17.203125 C 10.597656 -16.773438 11.320312 -16.398438 12.21875 -16.078125 C 13.125 -15.753906 14.066406 -15.382812 15.046875 -14.96875 C 16.023438 -14.5625 16.960938 -14.0625 17.859375 -13.46875 C 18.765625 -12.882812 19.492188 -12.117188 20.046875 -11.171875 C 20.597656 -10.222656 20.875 -9.015625 20.875 -7.546875 C 20.875 -5.191406 20.03125 -3.265625 18.34375 -1.765625 C 16.664062 -0.265625 14.175781 0.484375 10.875 0.484375 C 9.96875 0.484375 8.925781 0.410156 7.75 0.265625 C 6.570312 0.117188 5.425781 -0.101562 4.3125 -0.40625 C 3.195312 -0.71875 2.28125 -1.132812 1.5625 -1.65625 C 0.84375 -2.1875 0.484375 -2.84375 0.484375 -3.625 C 0.484375 -4.019531 0.585938 -4.507812 0.796875 -5.09375 C 1.015625 -5.6875 1.335938 -6.210938 1.765625 -6.671875 C 2.191406 -7.128906 2.710938 -7.359375 3.328125 -7.359375 C 3.890625 -7.359375 4.378906 -7.207031 4.796875 -6.90625 C 5.222656 -6.613281 5.800781 -6.3125 6.53125 -6 C 7.269531 -5.6875 8.359375 -5.53125 9.796875 -5.53125 C 10.617188 -5.53125 11.347656 -5.628906 11.984375 -5.828125 C 12.617188 -6.023438 12.9375 -6.46875 12.9375 -7.15625 C 12.9375 -7.78125 12.675781 -8.28125 12.15625 -8.65625 C 11.632812 -9.03125 10.960938 -9.367188 10.140625 -9.671875 C 9.328125 -9.984375 8.46875 -10.335938 7.5625 -10.734375 C 6.664062 -11.128906 5.8125 -11.628906 5 -12.234375 C 4.1875 -12.835938 3.515625 -13.632812 2.984375 -14.625 C 2.460938 -15.625 2.203125 -16.875 2.203125 -18.375 C 2.203125 -20.039062 2.53125 -21.453125 3.1875 -22.609375 C 3.84375 -23.773438 4.71875 -24.71875 5.8125 -25.4375 C 6.90625 -26.15625 8.113281 -26.671875 9.4375 -26.984375 C 10.757812 -27.296875 12.09375 -27.453125 13.4375 -27.453125 Z M 13.4375 -27.453125 "/></g></g></g><g fill="#daaf3e" fill-opacity="1"><g transform="translate(259.20719, 63.38719)"><g><path d="M 5.875 -8.71875 C 7.25 -8.71875 8.226562 -8.382812 8.8125 -7.71875 C 9.40625 -7.050781 9.703125 -6.113281 9.703125 -4.90625 C 9.703125 -4.25 9.578125 -3.492188 9.328125 -2.640625 C 9.085938 -1.796875 8.625 -1.0625 7.9375 -0.4375 C 7.25 0.175781 6.238281 0.484375 4.90625 0.484375 C 3.394531 0.484375 2.378906 0.09375 1.859375 -0.6875 C 1.335938 -1.46875 1.078125 -2.414062 1.078125 -3.53125 C 1.078125 -4.414062 1.222656 -5.25 1.515625 -6.03125 C 1.804688 -6.8125 2.300781 -7.453125 3 -7.953125 C 3.707031 -8.460938 4.664062 -8.71875 5.875 -8.71875 Z M 5.875 -8.71875 "/></g></g></g><g fill="#daaf3e" fill-opacity="1"><g transform="translate(271.507037, 63.38719)"><g><path d="M 13.4375 -27.453125 C 16.175781 -27.453125 18.207031 -26.90625 19.53125 -25.8125 C 20.851562 -24.71875 21.515625 -23.316406 21.515625 -21.609375 C 21.515625 -20.210938 21.066406 -19.128906 20.171875 -18.359375 C 19.273438 -17.585938 17.972656 -17.203125 16.265625 -17.203125 C 15.816406 -17.203125 15.507812 -17.25 15.34375 -17.34375 C 15.175781 -17.445312 15.09375 -17.628906 15.09375 -17.890625 C 15.09375 -18.285156 15.035156 -18.742188 14.921875 -19.265625 C 14.804688 -19.785156 14.5625 -20.234375 14.1875 -20.609375 C 13.8125 -20.984375 13.164062 -21.171875 12.25 -21.171875 C 11.332031 -21.171875 10.597656 -20.945312 10.046875 -20.5 C 9.492188 -20.0625 9.21875 -19.519531 9.21875 -18.875 C 9.21875 -18.1875 9.492188 -17.628906 10.046875 -17.203125 C 10.597656 -16.773438 11.320312 -16.398438 12.21875 -16.078125 C 13.125 -15.753906 14.066406 -15.382812 15.046875 -14.96875 C 16.023438 -14.5625 16.960938 -14.0625 17.859375 -13.46875 C 18.765625 -12.882812 19.492188 -12.117188 20.046875 -11.171875 C 20.597656 -10.222656 20.875 -9.015625 20.875 -7.546875 C 20.875 -5.191406 20.03125 -3.265625 18.34375 -1.765625 C 16.664062 -0.265625 14.175781 0.484375 10.875 0.484375 C 9.96875 0.484375 8.925781 0.410156 7.75 0.265625 C 6.570312 0.117188 5.425781 -0.101562 4.3125 -0.40625 C 3.195312 -0.71875 2.28125 -1.132812 1.5625 -1.65625 C 0.84375 -2.1875 0.484375 -2.84375 0.484375 -3.625 C 0.484375 -4.019531 0.585938 -4.507812 0.796875 -5.09375 C 1.015625 -5.6875 1.335938 -6.210938 1.765625 -6.671875 C 2.191406 -7.128906 2.710938 -7.359375 3.328125 -7.359375 C 3.890625 -7.359375 4.378906 -7.207031 4.796875 -6.90625 C 5.222656 -6.613281 5.800781 -6.3125 6.53125 -6 C 7.269531 -5.6875 8.359375 -5.53125 9.796875 -5.53125 C 10.617188 -5.53125 11.347656 -5.628906 11.984375 -5.828125 C 12.617188 -6.023438 12.9375 -6.46875 12.9375 -7.15625 C 12.9375 -7.78125 12.675781 -8.28125 12.15625 -8.65625 C 11.632812 -9.03125 10.960938 -9.367188 10.140625 -9.671875 C 9.328125 -9.984375 8.46875 -10.335938 7.5625 -10.734375 C 6.664062 -11.128906 5.8125 -11.628906 5 -12.234375 C 4.1875 -12.835938 3.515625 -13.632812 2.984375 -14.625 C 2.460938 -15.625 2.203125 -16.875 2.203125 -18.375 C 2.203125 -20.039062 2.53125 -21.453125 3.1875 -22.609375 C 3.84375 -23.773438 4.71875 -24.71875 5.8125 -25.4375 C 6.90625 -26.15625 8.113281 -26.671875 9.4375 -26.984375 C 10.757812 -27.296875 12.09375 -27.453125 13.4375 -27.453125 Z M 13.4375 -27.453125 "/></g></g></g><g fill="#daaf3e" fill-opacity="1"><g transform="translate(294.538635, 63.38719)"><g><path d="M 18.28125 -6.078125 C 18.414062 -7.515625 18.554688 -9.015625 18.703125 -10.578125 C 18.847656 -12.148438 18.96875 -13.582031 19.0625 -14.875 C 19.164062 -16.164062 19.21875 -17.070312 19.21875 -17.59375 C 19.21875 -18.445312 19.007812 -19.207031 18.59375 -19.875 C 18.1875 -20.539062 17.394531 -20.875 16.21875 -20.875 C 14.65625 -20.875 13.390625 -20.128906 12.421875 -18.640625 C 11.460938 -17.160156 10.898438 -15.210938 10.734375 -12.796875 C 10.703125 -12.109375 10.628906 -11.160156 10.515625 -9.953125 C 10.398438 -8.742188 10.289062 -7.492188 10.1875 -6.203125 C 10.09375 -4.910156 10.003906 -3.773438 9.921875 -2.796875 C 9.835938 -1.816406 9.796875 -1.210938 9.796875 -0.984375 C 9.796875 -0.585938 9.722656 -0.320312 9.578125 -0.1875 C 9.429688 -0.0625 9.144531 0 8.71875 0 L 6.953125 0 C 4.960938 0 3.628906 -0.398438 2.953125 -1.203125 C 2.285156 -2.003906 1.953125 -3.15625 1.953125 -4.65625 C 1.953125 -5.40625 2.007812 -6.425781 2.125 -7.71875 C 2.238281 -9.007812 2.394531 -10.773438 2.59375 -13.015625 C 2.789062 -15.253906 3.019531 -18.144531 3.28125 -21.6875 C 3.539062 -25.226562 3.820312 -29.613281 4.125 -34.84375 C 4.15625 -35.5625 4.234375 -35.988281 4.359375 -36.125 C 4.460938 -36.21875 4.722656 -36.265625 5.140625 -36.265625 L 7.0625 -36.265625 C 9.019531 -36.265625 10.359375 -35.835938 11.078125 -34.984375 C 11.796875 -34.140625 12.15625 -33.164062 12.15625 -32.0625 C 12.15625 -31.46875 12.097656 -30.367188 11.984375 -28.765625 C 11.867188 -27.171875 11.726562 -25.296875 11.5625 -23.140625 C 12.539062 -24.773438 13.632812 -25.898438 14.84375 -26.515625 C 16.0625 -27.140625 17.566406 -27.453125 19.359375 -27.453125 C 22.109375 -27.453125 24.144531 -26.804688 25.46875 -25.515625 C 26.789062 -24.222656 27.453125 -21.910156 27.453125 -18.578125 C 27.453125 -18.054688 27.398438 -17.164062 27.296875 -15.90625 C 27.203125 -14.644531 27.082031 -13.179688 26.9375 -11.515625 C 26.789062 -9.847656 26.640625 -8.128906 26.484375 -6.359375 C 26.335938 -4.597656 26.21875 -2.984375 26.125 -1.515625 C 26.09375 -0.796875 26.003906 -0.363281 25.859375 -0.21875 C 25.710938 -0.0703125 25.359375 0 24.796875 0 L 23.234375 0 C 21.171875 0 19.8125 -0.375 19.15625 -1.125 C 18.507812 -1.875 18.1875 -2.9375 18.1875 -4.3125 C 18.1875 -4.632812 18.191406 -4.941406 18.203125 -5.234375 C 18.222656 -5.535156 18.25 -5.816406 18.28125 -6.078125 Z M 18.28125 -6.078125 "/></g></g></g><g fill="#daaf3e" fill-opacity="1"><g transform="translate(324.332717, 63.38719)"><g><path d="M 12.984375 0.484375 C 10.015625 0.484375 7.6875 -0.0625 6 -1.15625 C 4.320312 -2.25 3.140625 -3.722656 2.453125 -5.578125 C 1.765625 -7.441406 1.421875 -9.503906 1.421875 -11.765625 C 1.421875 -13.722656 1.664062 -15.640625 2.15625 -17.515625 C 2.644531 -19.398438 3.441406 -21.082031 4.546875 -22.5625 C 5.660156 -24.050781 7.164062 -25.238281 9.0625 -26.125 C 10.957031 -27.007812 13.3125 -27.453125 16.125 -27.453125 C 20.238281 -27.453125 23.1875 -26.445312 24.96875 -24.4375 C 26.75 -22.425781 27.640625 -19.609375 27.640625 -15.984375 C 27.640625 -14.734375 27.523438 -13.375 27.296875 -11.90625 C 27.066406 -10.4375 26.640625 -8.972656 26.015625 -7.515625 C 25.398438 -6.066406 24.546875 -4.738281 23.453125 -3.53125 C 22.359375 -2.320312 20.953125 -1.347656 19.234375 -0.609375 C 17.523438 0.117188 15.441406 0.484375 12.984375 0.484375 Z M 15.296875 -20.921875 C 14.054688 -20.921875 13.066406 -20.609375 12.328125 -19.984375 C 11.585938 -19.367188 11.03125 -18.59375 10.65625 -17.65625 C 10.28125 -16.726562 10.035156 -15.773438 9.921875 -14.796875 C 9.804688 -13.816406 9.75 -12.984375 9.75 -12.296875 C 9.75 -10.140625 10.09375 -8.554688 10.78125 -7.546875 C 11.46875 -6.535156 12.445312 -6.03125 13.71875 -6.03125 C 14.863281 -6.03125 15.800781 -6.378906 16.53125 -7.078125 C 17.269531 -7.785156 17.84375 -8.660156 18.25 -9.703125 C 18.664062 -10.753906 18.945312 -11.828125 19.09375 -12.921875 C 19.238281 -14.015625 19.3125 -14.9375 19.3125 -15.6875 C 19.3125 -17.320312 19 -18.601562 18.375 -19.53125 C 17.757812 -20.457031 16.734375 -20.921875 15.296875 -20.921875 Z M 15.296875 -20.921875 "/></g></g></g><g fill="#daaf3e" fill-opacity="1"><g transform="translate(353.636751, 63.38719)"><g><path d="M 18.96875 -27.453125 C 22.007812 -27.453125 24.3125 -26.503906 25.875 -24.609375 C 27.445312 -22.710938 28.234375 -19.722656 28.234375 -15.640625 C 28.234375 -12.234375 27.71875 -9.328125 26.6875 -6.921875 C 25.65625 -4.523438 24.273438 -2.691406 22.546875 -1.421875 C 20.816406 -0.148438 18.859375 0.484375 16.671875 0.484375 C 14.960938 0.484375 13.609375 0.101562 12.609375 -0.65625 C 11.617188 -1.425781 10.847656 -2.484375 10.296875 -3.828125 C 10.160156 -2.421875 10.0625 -1.378906 10 -0.703125 C 9.9375 -0.0351562 9.894531 0.472656 9.875 0.828125 C 9.863281 1.191406 9.832031 1.582031 9.78125 2 C 9.726562 2.425781 9.671875 3.085938 9.609375 3.984375 C 9.546875 4.890625 9.429688 6.257812 9.265625 8.09375 C 9.234375 8.476562 9.148438 8.734375 9.015625 8.859375 C 8.890625 8.992188 8.613281 9.0625 8.1875 9.0625 L 6.421875 9.0625 C 4.429688 9.0625 3.097656 8.660156 2.421875 7.859375 C 1.753906 7.066406 1.421875 5.914062 1.421875 4.40625 C 1.421875 4.113281 1.453125 3.421875 1.515625 2.328125 C 1.585938 1.234375 1.675781 -0.117188 1.78125 -1.734375 C 1.894531 -3.359375 2.023438 -5.125 2.171875 -7.03125 C 2.328125 -8.945312 2.476562 -10.875 2.625 -12.8125 C 2.769531 -14.757812 2.914062 -16.597656 3.0625 -18.328125 C 3.207031 -20.054688 3.328125 -21.554688 3.421875 -22.828125 C 3.523438 -24.109375 3.59375 -25.007812 3.625 -25.53125 C 3.65625 -26.25 3.738281 -26.675781 3.875 -26.8125 C 3.96875 -26.90625 4.226562 -26.953125 4.65625 -26.953125 L 6.5625 -26.953125 C 8.300781 -26.953125 9.578125 -26.582031 10.390625 -25.84375 C 11.203125 -25.113281 11.609375 -24.242188 11.609375 -23.234375 C 12.367188 -24.734375 13.34375 -25.8125 14.53125 -26.46875 C 15.726562 -27.125 17.207031 -27.453125 18.96875 -27.453125 Z M 15.390625 -20.921875 C 13.753906 -20.921875 12.535156 -20.203125 11.734375 -18.765625 C 10.929688 -17.328125 10.53125 -15.367188 10.53125 -12.890625 C 10.53125 -11.773438 10.632812 -10.6875 10.84375 -9.625 C 11.0625 -8.5625 11.457031 -7.695312 12.03125 -7.03125 C 12.601562 -6.363281 13.410156 -6.03125 14.453125 -6.03125 C 15.859375 -6.03125 17.035156 -6.722656 17.984375 -8.109375 C 18.929688 -9.492188 19.40625 -11.644531 19.40625 -14.5625 C 19.40625 -15.664062 19.296875 -16.695312 19.078125 -17.65625 C 18.867188 -18.625 18.476562 -19.410156 17.90625 -20.015625 C 17.34375 -20.617188 16.503906 -20.921875 15.390625 -20.921875 Z M 15.390625 -20.921875 "/></g></g></g><g fill="#000000" fill-opacity="1"><g transform="translate(208.440045, 73.140496)"><g><path d="M 5.1875 -6.125 L 4.03125 -6.125 L 3.625 -0.15625 C 3.613281 -0.0507812 3.570312 0 3.5 0 L 2.90625 0 C 2.519531 0 2.238281 -0.078125 2.0625 -0.234375 C 1.882812 -0.398438 1.796875 -0.625 1.796875 -0.90625 C 1.796875 -1.039062 1.800781 -1.25 1.8125 -1.53125 C 1.832031 -1.8125 1.851562 -2.140625 1.875 -2.515625 C 1.90625 -2.890625 1.9375 -3.289062 1.96875 -3.71875 C 2 -4.144531 2.03125 -4.5625 2.0625 -4.96875 C 2.101562 -5.382812 2.132812 -5.769531 2.15625 -6.125 L 0.4375 -6.125 C 0.363281 -6.125 0.328125 -6.175781 0.328125 -6.28125 L 0.359375 -6.875 C 0.367188 -7.0625 0.421875 -7.234375 0.515625 -7.390625 C 0.617188 -7.546875 0.804688 -7.625 1.078125 -7.625 L 5.875 -7.625 C 5.914062 -7.625 5.953125 -7.613281 5.984375 -7.59375 C 6.023438 -7.570312 6.046875 -7.535156 6.046875 -7.484375 L 6.015625 -6.84375 C 5.992188 -6.632812 5.929688 -6.460938 5.828125 -6.328125 C 5.722656 -6.191406 5.507812 -6.125 5.1875 -6.125 Z M 5.1875 -6.125 "/></g></g></g><g fill="#000000" fill-opacity="1"><g transform="translate(214.286258, 73.140496)"><g><path d="M 4.015625 -1.328125 C 4.035156 -1.648438 4.0625 -1.984375 4.09375 -2.328125 C 4.132812 -2.671875 4.164062 -2.984375 4.1875 -3.265625 C 4.207031 -3.546875 4.21875 -3.742188 4.21875 -3.859375 C 4.21875 -4.046875 4.171875 -4.210938 4.078125 -4.359375 C 3.984375 -4.503906 3.8125 -4.578125 3.5625 -4.578125 C 3.21875 -4.578125 2.9375 -4.410156 2.71875 -4.078125 C 2.507812 -3.753906 2.390625 -3.332031 2.359375 -2.8125 C 2.347656 -2.65625 2.328125 -2.441406 2.296875 -2.171875 C 2.273438 -1.910156 2.253906 -1.640625 2.234375 -1.359375 C 2.210938 -1.078125 2.191406 -0.828125 2.171875 -0.609375 C 2.160156 -0.398438 2.15625 -0.269531 2.15625 -0.21875 C 2.15625 -0.132812 2.132812 -0.078125 2.09375 -0.046875 C 2.0625 -0.015625 2 0 1.90625 0 L 1.53125 0 C 1.09375 0 0.800781 -0.0859375 0.65625 -0.265625 C 0.507812 -0.441406 0.4375 -0.691406 0.4375 -1.015625 C 0.4375 -1.179688 0.445312 -1.40625 0.46875 -1.6875 C 0.488281 -1.976562 0.519531 -2.367188 0.5625 -2.859375 C 0.613281 -3.347656 0.664062 -3.976562 0.71875 -4.75 C 0.78125 -5.53125 0.84375 -6.492188 0.90625 -7.640625 C 0.90625 -7.796875 0.921875 -7.890625 0.953125 -7.921875 C 0.972656 -7.941406 1.03125 -7.953125 1.125 -7.953125 L 1.546875 -7.953125 C 1.972656 -7.953125 2.265625 -7.859375 2.421875 -7.671875 C 2.585938 -7.484375 2.671875 -7.269531 2.671875 -7.03125 C 2.671875 -6.90625 2.65625 -6.664062 2.625 -6.3125 C 2.601562 -5.957031 2.570312 -5.546875 2.53125 -5.078125 C 2.75 -5.429688 2.988281 -5.675781 3.25 -5.8125 C 3.519531 -5.945312 3.851562 -6.015625 4.25 -6.015625 C 4.851562 -6.015625 5.296875 -5.875 5.578125 -5.59375 C 5.867188 -5.3125 6.015625 -4.804688 6.015625 -4.078125 C 6.015625 -3.960938 6.003906 -3.765625 5.984375 -3.484375 C 5.960938 -3.210938 5.9375 -2.894531 5.90625 -2.53125 C 5.875 -2.164062 5.84375 -1.785156 5.8125 -1.390625 C 5.78125 -1.003906 5.753906 -0.648438 5.734375 -0.328125 C 5.722656 -0.171875 5.703125 -0.078125 5.671875 -0.046875 C 5.640625 -0.015625 5.5625 0 5.4375 0 L 5.09375 0 C 4.644531 0 4.347656 -0.0820312 4.203125 -0.25 C 4.054688 -0.414062 3.984375 -0.648438 3.984375 -0.953125 C 3.984375 -1.015625 3.984375 -1.078125 3.984375 -1.140625 C 3.992188 -1.210938 4.003906 -1.273438 4.015625 -1.328125 Z M 4.015625 -1.328125 "/></g></g></g><g fill="#000000" fill-opacity="1"><g transform="translate(220.820261, 73.140496)"><g><path d="M 2.921875 0.109375 C 2.617188 0.109375 2.3125 0.0703125 2 0 C 1.6875 -0.0820312 1.398438 -0.21875 1.140625 -0.40625 C 0.890625 -0.601562 0.6875 -0.863281 0.53125 -1.1875 C 0.375 -1.507812 0.296875 -1.914062 0.296875 -2.40625 C 0.296875 -2.625 0.316406 -2.882812 0.359375 -3.1875 C 0.410156 -3.5 0.5 -3.816406 0.625 -4.140625 C 0.75 -4.472656 0.929688 -4.78125 1.171875 -5.0625 C 1.410156 -5.351562 1.71875 -5.582031 2.09375 -5.75 C 2.476562 -5.925781 2.945312 -6.015625 3.5 -6.015625 C 4 -6.015625 4.394531 -5.941406 4.6875 -5.796875 C 4.976562 -5.648438 5.1875 -5.453125 5.3125 -5.203125 C 5.445312 -4.960938 5.515625 -4.695312 5.515625 -4.40625 C 5.515625 -4.007812 5.421875 -3.679688 5.234375 -3.421875 C 5.054688 -3.171875 4.820312 -2.96875 4.53125 -2.8125 C 4.25 -2.664062 3.945312 -2.554688 3.625 -2.484375 C 3.3125 -2.421875 3.019531 -2.378906 2.75 -2.359375 C 2.488281 -2.335938 2.289062 -2.328125 2.15625 -2.328125 C 2.15625 -2.054688 2.234375 -1.804688 2.390625 -1.578125 C 2.546875 -1.347656 2.804688 -1.234375 3.171875 -1.234375 C 3.359375 -1.234375 3.503906 -1.265625 3.609375 -1.328125 C 3.710938 -1.390625 3.796875 -1.457031 3.859375 -1.53125 C 3.921875 -1.601562 3.976562 -1.671875 4.03125 -1.734375 C 4.082031 -1.796875 4.144531 -1.828125 4.21875 -1.828125 C 4.269531 -1.828125 4.359375 -1.804688 4.484375 -1.765625 C 4.609375 -1.734375 4.726562 -1.660156 4.84375 -1.546875 C 4.96875 -1.441406 5.03125 -1.28125 5.03125 -1.0625 C 5.03125 -0.78125 4.921875 -0.550781 4.703125 -0.375 C 4.484375 -0.207031 4.210938 -0.0820312 3.890625 0 C 3.566406 0.0703125 3.242188 0.109375 2.921875 0.109375 Z M 3.125 -4.59375 C 2.914062 -4.59375 2.742188 -4.519531 2.609375 -4.375 C 2.484375 -4.226562 2.382812 -4.046875 2.3125 -3.828125 C 2.25 -3.609375 2.207031 -3.394531 2.1875 -3.1875 C 2.625 -3.195312 2.976562 -3.273438 3.25 -3.421875 C 3.53125 -3.566406 3.671875 -3.769531 3.671875 -4.03125 C 3.671875 -4.175781 3.625 -4.304688 3.53125 -4.421875 C 3.445312 -4.535156 3.3125 -4.59375 3.125 -4.59375 Z M 3.125 -4.59375 "/></g></g></g><g fill="#000000" fill-opacity="1"><g transform="translate(226.537517, 73.140496)"><g/></g></g><g fill="#daaf3e" fill-opacity="1"><g transform="translate(228.855867, 73.140496)"><g><path d="M 2.953125 -6.015625 C 3.546875 -6.015625 3.988281 -5.894531 4.28125 -5.65625 C 4.570312 -5.414062 4.71875 -5.109375 4.71875 -4.734375 C 4.71875 -4.429688 4.617188 -4.191406 4.421875 -4.015625 C 4.222656 -3.847656 3.9375 -3.765625 3.5625 -3.765625 C 3.46875 -3.765625 3.398438 -3.773438 3.359375 -3.796875 C 3.328125 -3.828125 3.3125 -3.867188 3.3125 -3.921875 C 3.3125 -4.003906 3.296875 -4.101562 3.265625 -4.21875 C 3.242188 -4.332031 3.191406 -4.429688 3.109375 -4.515625 C 3.023438 -4.597656 2.882812 -4.640625 2.6875 -4.640625 C 2.488281 -4.640625 2.328125 -4.59375 2.203125 -4.5 C 2.078125 -4.40625 2.015625 -4.285156 2.015625 -4.140625 C 2.015625 -3.984375 2.078125 -3.859375 2.203125 -3.765625 C 2.328125 -3.679688 2.488281 -3.601562 2.6875 -3.53125 C 2.882812 -3.457031 3.085938 -3.375 3.296875 -3.28125 C 3.515625 -3.195312 3.722656 -3.085938 3.921875 -2.953125 C 4.117188 -2.828125 4.273438 -2.660156 4.390625 -2.453125 C 4.515625 -2.242188 4.578125 -1.976562 4.578125 -1.65625 C 4.578125 -1.132812 4.390625 -0.707031 4.015625 -0.375 C 3.648438 -0.0507812 3.109375 0.109375 2.390625 0.109375 C 2.179688 0.109375 1.945312 0.09375 1.6875 0.0625 C 1.4375 0.03125 1.1875 -0.015625 0.9375 -0.078125 C 0.695312 -0.148438 0.5 -0.242188 0.34375 -0.359375 C 0.1875 -0.472656 0.109375 -0.617188 0.109375 -0.796875 C 0.109375 -0.878906 0.128906 -0.984375 0.171875 -1.109375 C 0.222656 -1.242188 0.296875 -1.359375 0.390625 -1.453125 C 0.484375 -1.554688 0.597656 -1.609375 0.734375 -1.609375 C 0.847656 -1.609375 0.953125 -1.578125 1.046875 -1.515625 C 1.140625 -1.453125 1.265625 -1.382812 1.421875 -1.3125 C 1.585938 -1.25 1.832031 -1.21875 2.15625 -1.21875 C 2.332031 -1.21875 2.488281 -1.238281 2.625 -1.28125 C 2.769531 -1.320312 2.84375 -1.414062 2.84375 -1.5625 C 2.84375 -1.707031 2.785156 -1.816406 2.671875 -1.890625 C 2.554688 -1.972656 2.40625 -2.046875 2.21875 -2.109375 C 2.039062 -2.179688 1.851562 -2.257812 1.65625 -2.34375 C 1.457031 -2.4375 1.269531 -2.546875 1.09375 -2.671875 C 0.914062 -2.804688 0.769531 -2.984375 0.65625 -3.203125 C 0.539062 -3.421875 0.484375 -3.695312 0.484375 -4.03125 C 0.484375 -4.394531 0.550781 -4.703125 0.6875 -4.953125 C 0.832031 -5.210938 1.023438 -5.421875 1.265625 -5.578125 C 1.515625 -5.734375 1.78125 -5.84375 2.0625 -5.90625 C 2.351562 -5.976562 2.648438 -6.015625 2.953125 -6.015625 Z M 2.953125 -6.015625 "/></g></g></g><g fill="#daaf3e" fill-opacity="1"><g transform="translate(233.906829, 73.140496)"><g><path d="M 3.328125 -4.46875 L 2.75 -4.46875 C 2.71875 -4.101562 2.6875 -3.742188 2.65625 -3.390625 C 2.625 -3.046875 2.597656 -2.734375 2.578125 -2.453125 C 2.554688 -2.179688 2.546875 -1.976562 2.546875 -1.84375 C 2.546875 -1.65625 2.566406 -1.53125 2.609375 -1.46875 C 2.660156 -1.40625 2.734375 -1.375 2.828125 -1.375 C 2.929688 -1.375 3.019531 -1.394531 3.09375 -1.4375 C 3.164062 -1.488281 3.226562 -1.535156 3.28125 -1.578125 C 3.332031 -1.628906 3.394531 -1.65625 3.46875 -1.65625 C 3.507812 -1.65625 3.550781 -1.625 3.59375 -1.5625 C 3.644531 -1.507812 3.671875 -1.378906 3.671875 -1.171875 C 3.671875 -0.773438 3.5625 -0.460938 3.34375 -0.234375 C 3.125 -0.00390625 2.753906 0.109375 2.234375 0.109375 C 1.222656 0.109375 0.71875 -0.378906 0.71875 -1.359375 C 0.71875 -1.503906 0.726562 -1.6875 0.75 -1.90625 C 0.769531 -2.132812 0.796875 -2.445312 0.828125 -2.84375 C 0.867188 -3.25 0.914062 -3.789062 0.96875 -4.46875 L 0.390625 -4.46875 C 0.347656 -4.46875 0.316406 -4.476562 0.296875 -4.5 C 0.285156 -4.519531 0.28125 -4.554688 0.28125 -4.609375 L 0.3125 -5.15625 C 0.320312 -5.28125 0.34375 -5.398438 0.375 -5.515625 C 0.414062 -5.628906 0.488281 -5.722656 0.59375 -5.796875 C 0.695312 -5.867188 0.859375 -5.90625 1.078125 -5.90625 C 1.128906 -6.039062 1.1875 -6.195312 1.25 -6.375 C 1.320312 -6.550781 1.390625 -6.722656 1.453125 -6.890625 C 1.515625 -7.066406 1.578125 -7.210938 1.640625 -7.328125 C 1.703125 -7.441406 1.757812 -7.5 1.8125 -7.5 L 2.125 -7.5 C 2.414062 -7.5 2.617188 -7.40625 2.734375 -7.21875 C 2.847656 -7.03125 2.90625 -6.804688 2.90625 -6.546875 C 2.90625 -6.398438 2.894531 -6.1875 2.875 -5.90625 L 4.015625 -5.90625 C 4.128906 -5.90625 4.1875 -5.859375 4.1875 -5.765625 L 4.140625 -5.1875 C 4.128906 -4.96875 4.070312 -4.789062 3.96875 -4.65625 C 3.863281 -4.53125 3.648438 -4.46875 3.328125 -4.46875 Z M 3.328125 -4.46875 "/></g></g></g><g fill="#daaf3e" fill-opacity="1"><g transform="translate(238.194774, 73.140496)"><g><path d="M 0.125 -1.328125 C 0.125 -1.960938 0.414062 -2.460938 1 -2.828125 C 1.582031 -3.203125 2.4375 -3.398438 3.5625 -3.421875 C 3.5625 -3.503906 3.5625 -3.570312 3.5625 -3.625 C 3.570312 -3.6875 3.578125 -3.753906 3.578125 -3.828125 C 3.578125 -4.054688 3.535156 -4.238281 3.453125 -4.375 C 3.367188 -4.507812 3.1875 -4.578125 2.90625 -4.578125 C 2.613281 -4.578125 2.421875 -4.492188 2.328125 -4.328125 C 2.234375 -4.171875 2.148438 -3.960938 2.078125 -3.703125 C 2.066406 -3.640625 2.035156 -3.597656 1.984375 -3.578125 C 1.929688 -3.566406 1.851562 -3.5625 1.75 -3.5625 C 1.019531 -3.5625 0.65625 -3.835938 0.65625 -4.390625 C 0.65625 -4.835938 0.859375 -5.21875 1.265625 -5.53125 C 1.671875 -5.851562 2.289062 -6.015625 3.125 -6.015625 C 3.914062 -6.015625 4.488281 -5.847656 4.84375 -5.515625 C 5.207031 -5.191406 5.390625 -4.726562 5.390625 -4.125 C 5.390625 -4.050781 5.378906 -3.914062 5.359375 -3.71875 C 5.335938 -3.519531 5.3125 -3.300781 5.28125 -3.0625 C 5.257812 -2.820312 5.238281 -2.601562 5.21875 -2.40625 C 5.207031 -2.21875 5.203125 -2.082031 5.203125 -2 C 5.203125 -1.820312 5.234375 -1.691406 5.296875 -1.609375 C 5.359375 -1.535156 5.429688 -1.484375 5.515625 -1.453125 C 5.597656 -1.429688 5.671875 -1.410156 5.734375 -1.390625 C 5.804688 -1.378906 5.84375 -1.347656 5.84375 -1.296875 C 5.84375 -1.085938 5.800781 -0.875 5.71875 -0.65625 C 5.632812 -0.4375 5.5 -0.253906 5.3125 -0.109375 C 5.132812 0.0351562 4.878906 0.109375 4.546875 0.109375 C 4.203125 0.109375 3.941406 0.0234375 3.765625 -0.140625 C 3.597656 -0.304688 3.484375 -0.535156 3.421875 -0.828125 C 3.253906 -0.585938 3.03125 -0.367188 2.75 -0.171875 C 2.476562 0.015625 2.117188 0.109375 1.671875 0.109375 C 1.390625 0.109375 1.128906 0.0625 0.890625 -0.03125 C 0.648438 -0.125 0.460938 -0.273438 0.328125 -0.484375 C 0.191406 -0.703125 0.125 -0.984375 0.125 -1.328125 Z M 3.46875 -2.546875 C 3.207031 -2.546875 2.960938 -2.519531 2.734375 -2.46875 C 2.503906 -2.414062 2.316406 -2.332031 2.171875 -2.21875 C 2.035156 -2.101562 1.96875 -1.953125 1.96875 -1.765625 C 1.96875 -1.597656 2.019531 -1.484375 2.125 -1.421875 C 2.238281 -1.359375 2.351562 -1.328125 2.46875 -1.328125 C 2.695312 -1.328125 2.910156 -1.425781 3.109375 -1.625 C 3.316406 -1.832031 3.4375 -2.140625 3.46875 -2.546875 Z M 3.46875 -2.546875 "/></g></g></g><g fill="#daaf3e" fill-opacity="1"><g transform="translate(244.245171, 73.140496)"><g><path d="M 3.90625 -3.34375 C 3.832031 -3.34375 3.734375 -3.351562 3.609375 -3.375 C 3.484375 -3.394531 3.421875 -3.429688 3.421875 -3.484375 C 3.421875 -3.578125 3.425781 -3.660156 3.4375 -3.734375 C 3.445312 -3.816406 3.453125 -3.898438 3.453125 -3.984375 C 3.453125 -4.140625 3.429688 -4.269531 3.390625 -4.375 C 3.347656 -4.476562 3.257812 -4.53125 3.125 -4.53125 C 2.925781 -4.53125 2.757812 -4.394531 2.625 -4.125 C 2.488281 -3.863281 2.40625 -3.472656 2.375 -2.953125 C 2.363281 -2.722656 2.34375 -2.460938 2.3125 -2.171875 C 2.289062 -1.890625 2.269531 -1.609375 2.25 -1.328125 C 2.226562 -1.054688 2.207031 -0.816406 2.1875 -0.609375 C 2.175781 -0.410156 2.171875 -0.28125 2.171875 -0.21875 C 2.171875 -0.144531 2.144531 -0.0859375 2.09375 -0.046875 C 2.039062 -0.015625 1.988281 0 1.9375 0 L 1.546875 0 C 1.109375 0 0.816406 -0.0859375 0.671875 -0.265625 C 0.523438 -0.441406 0.453125 -0.691406 0.453125 -1.015625 C 0.453125 -1.128906 0.457031 -1.285156 0.46875 -1.484375 C 0.476562 -1.679688 0.492188 -1.953125 0.515625 -2.296875 C 0.546875 -2.640625 0.582031 -3.078125 0.625 -3.609375 C 0.664062 -4.148438 0.71875 -4.8125 0.78125 -5.59375 C 0.789062 -5.800781 0.863281 -5.90625 1 -5.90625 L 1.421875 -5.90625 C 1.828125 -5.90625 2.101562 -5.820312 2.25 -5.65625 C 2.40625 -5.5 2.5 -5.3125 2.53125 -5.09375 C 2.695312 -5.425781 2.921875 -5.660156 3.203125 -5.796875 C 3.492188 -5.941406 3.753906 -6.015625 3.984375 -6.015625 C 4.160156 -6.015625 4.335938 -5.96875 4.515625 -5.875 C 4.703125 -5.789062 4.851562 -5.65625 4.96875 -5.46875 C 5.09375 -5.289062 5.15625 -5.054688 5.15625 -4.765625 C 5.15625 -4.378906 5.039062 -4.046875 4.8125 -3.765625 C 4.59375 -3.484375 4.289062 -3.34375 3.90625 -3.34375 Z M 3.90625 -3.34375 "/></g></g></g><g fill="#daaf3e" fill-opacity="1"><g transform="translate(249.392853, 73.140496)"><g/></g></g><g fill="#000000" fill-opacity="1"><g transform="translate(251.706466, 73.140496)"><g><path d="M 4.015625 -1.328125 C 4.035156 -1.648438 4.0625 -1.984375 4.09375 -2.328125 C 4.132812 -2.671875 4.164062 -2.984375 4.1875 -3.265625 C 4.207031 -3.546875 4.21875 -3.742188 4.21875 -3.859375 C 4.21875 -4.046875 4.171875 -4.210938 4.078125 -4.359375 C 3.984375 -4.503906 3.8125 -4.578125 3.5625 -4.578125 C 3.21875 -4.578125 2.9375 -4.410156 2.71875 -4.078125 C 2.507812 -3.753906 2.390625 -3.332031 2.359375 -2.8125 C 2.347656 -2.65625 2.328125 -2.441406 2.296875 -2.171875 C 2.273438 -1.910156 2.253906 -1.640625 2.234375 -1.359375 C 2.210938 -1.078125 2.191406 -0.828125 2.171875 -0.609375 C 2.160156 -0.398438 2.15625 -0.269531 2.15625 -0.21875 C 2.15625 -0.132812 2.132812 -0.078125 2.09375 -0.046875 C 2.0625 -0.015625 2 0 1.90625 0 L 1.53125 0 C 1.09375 0 0.800781 -0.0859375 0.65625 -0.265625 C 0.507812 -0.441406 0.4375 -0.691406 0.4375 -1.015625 C 0.4375 -1.179688 0.445312 -1.40625 0.46875 -1.6875 C 0.488281 -1.976562 0.519531 -2.367188 0.5625 -2.859375 C 0.613281 -3.347656 0.664062 -3.976562 0.71875 -4.75 C 0.78125 -5.53125 0.84375 -6.492188 0.90625 -7.640625 C 0.90625 -7.796875 0.921875 -7.890625 0.953125 -7.921875 C 0.972656 -7.941406 1.03125 -7.953125 1.125 -7.953125 L 1.546875 -7.953125 C 1.972656 -7.953125 2.265625 -7.859375 2.421875 -7.671875 C 2.585938 -7.484375 2.671875 -7.269531 2.671875 -7.03125 C 2.671875 -6.90625 2.65625 -6.664062 2.625 -6.3125 C 2.601562 -5.957031 2.570312 -5.546875 2.53125 -5.078125 C 2.75 -5.429688 2.988281 -5.675781 3.25 -5.8125 C 3.519531 -5.945312 3.851562 -6.015625 4.25 -6.015625 C 4.851562 -6.015625 5.296875 -5.875 5.578125 -5.59375 C 5.867188 -5.3125 6.015625 -4.804688 6.015625 -4.078125 C 6.015625 -3.960938 6.003906 -3.765625 5.984375 -3.484375 C 5.960938 -3.210938 5.9375 -2.894531 5.90625 -2.53125 C 5.875 -2.164062 5.84375 -1.785156 5.8125 -1.390625 C 5.78125 -1.003906 5.753906 -0.648438 5.734375 -0.328125 C 5.722656 -0.171875 5.703125 -0.078125 5.671875 -0.046875 C 5.640625 -0.015625 5.5625 0 5.4375 0 L 5.09375 0 C 4.644531 0 4.347656 -0.0820312 4.203125 -0.25 C 4.054688 -0.414062 3.984375 -0.648438 3.984375 -0.953125 C 3.984375 -1.015625 3.984375 -1.078125 3.984375 -1.140625 C 3.992188 -1.210938 4.003906 -1.273438 4.015625 -1.328125 Z M 4.015625 -1.328125 "/></g></g></g><g fill="#000000" fill-opacity="1"><g transform="translate(258.240469, 73.140496)"><g><path d="M 2.921875 0.109375 C 2.617188 0.109375 2.3125 0.0703125 2 0 C 1.6875 -0.0820312 1.398438 -0.21875 1.140625 -0.40625 C 0.890625 -0.601562 0.6875 -0.863281 0.53125 -1.1875 C 0.375 -1.507812 0.296875 -1.914062 0.296875 -2.40625 C 0.296875 -2.625 0.316406 -2.882812 0.359375 -3.1875 C 0.410156 -3.5 0.5 -3.816406 0.625 -4.140625 C 0.75 -4.472656 0.929688 -4.78125 1.171875 -5.0625 C 1.410156 -5.351562 1.71875 -5.582031 2.09375 -5.75 C 2.476562 -5.925781 2.945312 -6.015625 3.5 -6.015625 C 4 -6.015625 4.394531 -5.941406 4.6875 -5.796875 C 4.976562 -5.648438 5.1875 -5.453125 5.3125 -5.203125 C 5.445312 -4.960938 5.515625 -4.695312 5.515625 -4.40625 C 5.515625 -4.007812 5.421875 -3.679688 5.234375 -3.421875 C 5.054688 -3.171875 4.820312 -2.96875 4.53125 -2.8125 C 4.25 -2.664062 3.945312 -2.554688 3.625 -2.484375 C 3.3125 -2.421875 3.019531 -2.378906 2.75 -2.359375 C 2.488281 -2.335938 2.289062 -2.328125 2.15625 -2.328125 C 2.15625 -2.054688 2.234375 -1.804688 2.390625 -1.578125 C 2.546875 -1.347656 2.804688 -1.234375 3.171875 -1.234375 C 3.359375 -1.234375 3.503906 -1.265625 3.609375 -1.328125 C 3.710938 -1.390625 3.796875 -1.457031 3.859375 -1.53125 C 3.921875 -1.601562 3.976562 -1.671875 4.03125 -1.734375 C 4.082031 -1.796875 4.144531 -1.828125 4.21875 -1.828125 C 4.269531 -1.828125 4.359375 -1.804688 4.484375 -1.765625 C 4.609375 -1.734375 4.726562 -1.660156 4.84375 -1.546875 C 4.96875 -1.441406 5.03125 -1.28125 5.03125 -1.0625 C 5.03125 -0.78125 4.921875 -0.550781 4.703125 -0.375 C 4.484375 -0.207031 4.210938 -0.0820312 3.890625 0 C 3.566406 0.0703125 3.242188 0.109375 2.921875 0.109375 Z M 3.125 -4.59375 C 2.914062 -4.59375 2.742188 -4.519531 2.609375 -4.375 C 2.484375 -4.226562 2.382812 -4.046875 2.3125 -3.828125 C 2.25 -3.609375 2.207031 -3.394531 2.1875 -3.1875 C 2.625 -3.195312 2.976562 -3.273438 3.25 -3.421875 C 3.53125 -3.566406 3.671875 -3.769531 3.671875 -4.03125 C 3.671875 -4.175781 3.625 -4.304688 3.53125 -4.421875 C 3.445312 -4.535156 3.3125 -4.59375 3.125 -4.59375 Z M 3.125 -4.59375 "/></g></g></g><g fill="#000000" fill-opacity="1"><g transform="translate(263.957725, 73.140496)"><g><path d="M 3.90625 -3.34375 C 3.832031 -3.34375 3.734375 -3.351562 3.609375 -3.375 C 3.484375 -3.394531 3.421875 -3.429688 3.421875 -3.484375 C 3.421875 -3.578125 3.425781 -3.660156 3.4375 -3.734375 C 3.445312 -3.816406 3.453125 -3.898438 3.453125 -3.984375 C 3.453125 -4.140625 3.429688 -4.269531 3.390625 -4.375 C 3.347656 -4.476562 3.257812 -4.53125 3.125 -4.53125 C 2.925781 -4.53125 2.757812 -4.394531 2.625 -4.125 C 2.488281 -3.863281 2.40625 -3.472656 2.375 -2.953125 C 2.363281 -2.722656 2.34375 -2.460938 2.3125 -2.171875 C 2.289062 -1.890625 2.269531 -1.609375 2.25 -1.328125 C 2.226562 -1.054688 2.207031 -0.816406 2.1875 -0.609375 C 2.175781 -0.410156 2.171875 -0.28125 2.171875 -0.21875 C 2.171875 -0.144531 2.144531 -0.0859375 2.09375 -0.046875 C 2.039062 -0.015625 1.988281 0 1.9375 0 L 1.546875 0 C 1.109375 0 0.816406 -0.0859375 0.671875 -0.265625 C 0.523438 -0.441406 0.453125 -0.691406 0.453125 -1.015625 C 0.453125 -1.128906 0.457031 -1.285156 0.46875 -1.484375 C 0.476562 -1.679688 0.492188 -1.953125 0.515625 -2.296875 C 0.546875 -2.640625 0.582031 -3.078125 0.625 -3.609375 C 0.664062 -4.148438 0.71875 -4.8125 0.78125 -5.59375 C 0.789062 -5.800781 0.863281 -5.90625 1 -5.90625 L 1.421875 -5.90625 C 1.828125 -5.90625 2.101562 -5.820312 2.25 -5.65625 C 2.40625 -5.5 2.5 -5.3125 2.53125 -5.09375 C 2.695312 -5.425781 2.921875 -5.660156 3.203125 -5.796875 C 3.492188 -5.941406 3.753906 -6.015625 3.984375 -6.015625 C 4.160156 -6.015625 4.335938 -5.96875 4.515625 -5.875 C 4.703125 -5.789062 4.851562 -5.65625 4.96875 -5.46875 C 5.09375 -5.289062 5.15625 -5.054688 5.15625 -4.765625 C 5.15625 -4.378906 5.039062 -4.046875 4.8125 -3.765625 C 4.59375 -3.484375 4.289062 -3.34375 3.90625 -3.34375 Z M 3.90625 -3.34375 "/></g></g></g><g fill="#000000" fill-opacity="1"><g transform="translate(269.105408, 73.140496)"><g><path d="M 2.921875 0.109375 C 2.617188 0.109375 2.3125 0.0703125 2 0 C 1.6875 -0.0820312 1.398438 -0.21875 1.140625 -0.40625 C 0.890625 -0.601562 0.6875 -0.863281 0.53125 -1.1875 C 0.375 -1.507812 0.296875 -1.914062 0.296875 -2.40625 C 0.296875 -2.625 0.316406 -2.882812 0.359375 -3.1875 C 0.410156 -3.5 0.5 -3.816406 0.625 -4.140625 C 0.75 -4.472656 0.929688 -4.78125 1.171875 -5.0625 C 1.410156 -5.351562 1.71875 -5.582031 2.09375 -5.75 C 2.476562 -5.925781 2.945312 -6.015625 3.5 -6.015625 C 4 -6.015625 4.394531 -5.941406 4.6875 -5.796875 C 4.976562 -5.648438 5.1875 -5.453125 5.3125 -5.203125 C 5.445312 -4.960938 5.515625 -4.695312 5.515625 -4.40625 C 5.515625 -4.007812 5.421875 -3.679688 5.234375 -3.421875 C 5.054688 -3.171875 4.820312 -2.96875 4.53125 -2.8125 C 4.25 -2.664062 3.945312 -2.554688 3.625 -2.484375 C 3.3125 -2.421875 3.019531 -2.378906 2.75 -2.359375 C 2.488281 -2.335938 2.289062 -2.328125 2.15625 -2.328125 C 2.15625 -2.054688 2.234375 -1.804688 2.390625 -1.578125 C 2.546875 -1.347656 2.804688 -1.234375 3.171875 -1.234375 C 3.359375 -1.234375 3.503906 -1.265625 3.609375 -1.328125 C 3.710938 -1.390625 3.796875 -1.457031 3.859375 -1.53125 C 3.921875 -1.601562 3.976562 -1.671875 4.03125 -1.734375 C 4.082031 -1.796875 4.144531 -1.828125 4.21875 -1.828125 C 4.269531 -1.828125 4.359375 -1.804688 4.484375 -1.765625 C 4.609375 -1.734375 4.726562 -1.660156 4.84375 -1.546875 C 4.96875 -1.441406 5.03125 -1.28125 5.03125 -1.0625 C 5.03125 -0.78125 4.921875 -0.550781 4.703125 -0.375 C 4.484375 -0.207031 4.210938 -0.0820312 3.890625 0 C 3.566406 0.0703125 3.242188 0.109375 2.921875 0.109375 Z M 3.125 -4.59375 C 2.914062 -4.59375 2.742188 -4.519531 2.609375 -4.375 C 2.484375 -4.226562 2.382812 -4.046875 2.3125 -3.828125 C 2.25 -3.609375 2.207031 -3.394531 2.1875 -3.1875 C 2.625 -3.195312 2.976562 -3.273438 3.25 -3.421875 C 3.53125 -3.566406 3.671875 -3.769531 3.671875 -4.03125 C 3.671875 -4.175781 3.625 -4.304688 3.53125 -4.421875 C 3.445312 -4.535156 3.3125 -4.59375 3.125 -4.59375 Z M 3.125 -4.59375 "/></g></g></g><g fill="#000000" fill-opacity="1"><g transform="translate(274.822664, 73.140496)"><g/></g></g><g fill="#000000" fill-opacity="1"><g transform="translate(277.133207, 73.140496)"><g><path d="M 1.9375 0 L 1.546875 0 C 1.109375 0 0.816406 -0.0859375 0.671875 -0.265625 C 0.523438 -0.441406 0.453125 -0.691406 0.453125 -1.015625 C 0.453125 -1.128906 0.457031 -1.285156 0.46875 -1.484375 C 0.476562 -1.679688 0.492188 -1.953125 0.515625 -2.296875 C 0.546875 -2.640625 0.582031 -3.078125 0.625 -3.609375 C 0.664062 -4.148438 0.71875 -4.8125 0.78125 -5.59375 C 0.78125 -5.757812 0.796875 -5.851562 0.828125 -5.875 C 0.847656 -5.894531 0.90625 -5.90625 1 -5.90625 L 1.421875 -5.90625 C 1.859375 -5.90625 2.148438 -5.816406 2.296875 -5.640625 C 2.441406 -5.472656 2.515625 -5.238281 2.515625 -4.9375 C 2.515625 -4.800781 2.503906 -4.554688 2.484375 -4.203125 C 2.460938 -3.859375 2.425781 -3.363281 2.375 -2.71875 C 2.320312 -2.082031 2.253906 -1.25 2.171875 -0.21875 C 2.160156 -0.132812 2.140625 -0.078125 2.109375 -0.046875 C 2.085938 -0.015625 2.03125 0 1.9375 0 Z M 0.78125 -7.1875 C 0.78125 -7.46875 0.882812 -7.691406 1.09375 -7.859375 C 1.300781 -8.023438 1.582031 -8.109375 1.9375 -8.109375 C 2.238281 -8.109375 2.457031 -8.046875 2.59375 -7.921875 C 2.738281 -7.796875 2.8125 -7.628906 2.8125 -7.421875 C 2.8125 -7.148438 2.710938 -6.925781 2.515625 -6.75 C 2.316406 -6.582031 2.03125 -6.5 1.65625 -6.5 C 1.070312 -6.5 0.78125 -6.726562 0.78125 -7.1875 Z M 0.78125 -7.1875 "/></g></g></g><g fill="#000000" fill-opacity="1"><g transform="translate(280.153035, 73.140496)"><g><path d="M 2.953125 -6.015625 C 3.546875 -6.015625 3.988281 -5.894531 4.28125 -5.65625 C 4.570312 -5.414062 4.71875 -5.109375 4.71875 -4.734375 C 4.71875 -4.429688 4.617188 -4.191406 4.421875 -4.015625 C 4.222656 -3.847656 3.9375 -3.765625 3.5625 -3.765625 C 3.46875 -3.765625 3.398438 -3.773438 3.359375 -3.796875 C 3.328125 -3.828125 3.3125 -3.867188 3.3125 -3.921875 C 3.3125 -4.003906 3.296875 -4.101562 3.265625 -4.21875 C 3.242188 -4.332031 3.191406 -4.429688 3.109375 -4.515625 C 3.023438 -4.597656 2.882812 -4.640625 2.6875 -4.640625 C 2.488281 -4.640625 2.328125 -4.59375 2.203125 -4.5 C 2.078125 -4.40625 2.015625 -4.285156 2.015625 -4.140625 C 2.015625 -3.984375 2.078125 -3.859375 2.203125 -3.765625 C 2.328125 -3.679688 2.488281 -3.601562 2.6875 -3.53125 C 2.882812 -3.457031 3.085938 -3.375 3.296875 -3.28125 C 3.515625 -3.195312 3.722656 -3.085938 3.921875 -2.953125 C 4.117188 -2.828125 4.273438 -2.660156 4.390625 -2.453125 C 4.515625 -2.242188 4.578125 -1.976562 4.578125 -1.65625 C 4.578125 -1.132812 4.390625 -0.707031 4.015625 -0.375 C 3.648438 -0.0507812 3.109375 0.109375 2.390625 0.109375 C 2.179688 0.109375 1.945312 0.09375 1.6875 0.0625 C 1.4375 0.03125 1.1875 -0.015625 0.9375 -0.078125 C 0.695312 -0.148438 0.5 -0.242188 0.34375 -0.359375 C 0.1875 -0.472656 0.109375 -0.617188 0.109375 -0.796875 C 0.109375 -0.878906 0.128906 -0.984375 0.171875 -1.109375 C 0.222656 -1.242188 0.296875 -1.359375 0.390625 -1.453125 C 0.484375 -1.554688 0.597656 -1.609375 0.734375 -1.609375 C 0.847656 -1.609375 0.953125 -1.578125 1.046875 -1.515625 C 1.140625 -1.453125 1.265625 -1.382812 1.421875 -1.3125 C 1.585938 -1.25 1.832031 -1.21875 2.15625 -1.21875 C 2.332031 -1.21875 2.488281 -1.238281 2.625 -1.28125 C 2.769531 -1.320312 2.84375 -1.414062 2.84375 -1.5625 C 2.84375 -1.707031 2.785156 -1.816406 2.671875 -1.890625 C 2.554688 -1.972656 2.40625 -2.046875 2.21875 -2.109375 C 2.039062 -2.179688 1.851562 -2.257812 1.65625 -2.34375 C 1.457031 -2.4375 1.269531 -2.546875 1.09375 -2.671875 C 0.914062 -2.804688 0.769531 -2.984375 0.65625 -3.203125 C 0.539062 -3.421875 0.484375 -3.695312 0.484375 -4.03125 C 0.484375 -4.394531 0.550781 -4.703125 0.6875 -4.953125 C 0.832031 -5.210938 1.023438 -5.421875 1.265625 -5.578125 C 1.515625 -5.734375 1.78125 -5.84375 2.0625 -5.90625 C 2.351562 -5.976562 2.648438 -6.015625 2.953125 -6.015625 Z M 2.953125 -6.015625 "/></g></g></g><g fill="#000000" fill-opacity="1"><g transform="translate(285.203996, 73.140496)"><g/></g></g><g fill="#000000" fill-opacity="1"><g transform="translate(287.514539, 73.140496)"><g><path d="M 3.328125 -4.46875 L 2.75 -4.46875 C 2.71875 -4.101562 2.6875 -3.742188 2.65625 -3.390625 C 2.625 -3.046875 2.597656 -2.734375 2.578125 -2.453125 C 2.554688 -2.179688 2.546875 -1.976562 2.546875 -1.84375 C 2.546875 -1.65625 2.566406 -1.53125 2.609375 -1.46875 C 2.660156 -1.40625 2.734375 -1.375 2.828125 -1.375 C 2.929688 -1.375 3.019531 -1.394531 3.09375 -1.4375 C 3.164062 -1.488281 3.226562 -1.535156 3.28125 -1.578125 C 3.332031 -1.628906 3.394531 -1.65625 3.46875 -1.65625 C 3.507812 -1.65625 3.550781 -1.625 3.59375 -1.5625 C 3.644531 -1.507812 3.671875 -1.378906 3.671875 -1.171875 C 3.671875 -0.773438 3.5625 -0.460938 3.34375 -0.234375 C 3.125 -0.00390625 2.753906 0.109375 2.234375 0.109375 C 1.222656 0.109375 0.71875 -0.378906 0.71875 -1.359375 C 0.71875 -1.503906 0.726562 -1.6875 0.75 -1.90625 C 0.769531 -2.132812 0.796875 -2.445312 0.828125 -2.84375 C 0.867188 -3.25 0.914062 -3.789062 0.96875 -4.46875 L 0.390625 -4.46875 C 0.347656 -4.46875 0.316406 -4.476562 0.296875 -4.5 C 0.285156 -4.519531 0.28125 -4.554688 0.28125 -4.609375 L 0.3125 -5.15625 C 0.320312 -5.28125 0.34375 -5.398438 0.375 -5.515625 C 0.414062 -5.628906 0.488281 -5.722656 0.59375 -5.796875 C 0.695312 -5.867188 0.859375 -5.90625 1.078125 -5.90625 C 1.128906 -6.039062 1.1875 -6.195312 1.25 -6.375 C 1.320312 -6.550781 1.390625 -6.722656 1.453125 -6.890625 C 1.515625 -7.066406 1.578125 -7.210938 1.640625 -7.328125 C 1.703125 -7.441406 1.757812 -7.5 1.8125 -7.5 L 2.125 -7.5 C 2.414062 -7.5 2.617188 -7.40625 2.734375 -7.21875 C 2.847656 -7.03125 2.90625 -6.804688 2.90625 -6.546875 C 2.90625 -6.398438 2.894531 -6.1875 2.875 -5.90625 L 4.015625 -5.90625 C 4.128906 -5.90625 4.1875 -5.859375 4.1875 -5.765625 L 4.140625 -5.1875 C 4.128906 -4.96875 4.070312 -4.789062 3.96875 -4.65625 C 3.863281 -4.53125 3.648438 -4.46875 3.328125 -4.46875 Z M 3.328125 -4.46875 "/></g></g></g><g fill="#000000" fill-opacity="1"><g transform="translate(291.802485, 73.140496)"><g><path d="M 4.015625 -1.328125 C 4.035156 -1.648438 4.0625 -1.984375 4.09375 -2.328125 C 4.132812 -2.671875 4.164062 -2.984375 4.1875 -3.265625 C 4.207031 -3.546875 4.21875 -3.742188 4.21875 -3.859375 C 4.21875 -4.046875 4.171875 -4.210938 4.078125 -4.359375 C 3.984375 -4.503906 3.8125 -4.578125 3.5625 -4.578125 C 3.21875 -4.578125 2.9375 -4.410156 2.71875 -4.078125 C 2.507812 -3.753906 2.390625 -3.332031 2.359375 -2.8125 C 2.347656 -2.65625 2.328125 -2.441406 2.296875 -2.171875 C 2.273438 -1.910156 2.253906 -1.640625 2.234375 -1.359375 C 2.210938 -1.078125 2.191406 -0.828125 2.171875 -0.609375 C 2.160156 -0.398438 2.15625 -0.269531 2.15625 -0.21875 C 2.15625 -0.132812 2.132812 -0.078125 2.09375 -0.046875 C 2.0625 -0.015625 2 0 1.90625 0 L 1.53125 0 C 1.09375 0 0.800781 -0.0859375 0.65625 -0.265625 C 0.507812 -0.441406 0.4375 -0.691406 0.4375 -1.015625 C 0.4375 -1.179688 0.445312 -1.40625 0.46875 -1.6875 C 0.488281 -1.976562 0.519531 -2.367188 0.5625 -2.859375 C 0.613281 -3.347656 0.664062 -3.976562 0.71875 -4.75 C 0.78125 -5.53125 0.84375 -6.492188 0.90625 -7.640625 C 0.90625 -7.796875 0.921875 -7.890625 0.953125 -7.921875 C 0.972656 -7.941406 1.03125 -7.953125 1.125 -7.953125 L 1.546875 -7.953125 C 1.972656 -7.953125 2.265625 -7.859375 2.421875 -7.671875 C 2.585938 -7.484375 2.671875 -7.269531 2.671875 -7.03125 C 2.671875 -6.90625 2.65625 -6.664062 2.625 -6.3125 C 2.601562 -5.957031 2.570312 -5.546875 2.53125 -5.078125 C 2.75 -5.429688 2.988281 -5.675781 3.25 -5.8125 C 3.519531 -5.945312 3.851562 -6.015625 4.25 -6.015625 C 4.851562 -6.015625 5.296875 -5.875 5.578125 -5.59375 C 5.867188 -5.3125 6.015625 -4.804688 6.015625 -4.078125 C 6.015625 -3.960938 6.003906 -3.765625 5.984375 -3.484375 C 5.960938 -3.210938 5.9375 -2.894531 5.90625 -2.53125 C 5.875 -2.164062 5.84375 -1.785156 5.8125 -1.390625 C 5.78125 -1.003906 5.753906 -0.648438 5.734375 -0.328125 C 5.722656 -0.171875 5.703125 -0.078125 5.671875 -0.046875 C 5.640625 -0.015625 5.5625 0 5.4375 0 L 5.09375 0 C 4.644531 0 4.347656 -0.0820312 4.203125 -0.25 C 4.054688 -0.414062 3.984375 -0.648438 3.984375 -0.953125 C 3.984375 -1.015625 3.984375 -1.078125 3.984375 -1.140625 C 3.992188 -1.210938 4.003906 -1.273438 4.015625 -1.328125 Z M 4.015625 -1.328125 "/></g></g></g><g fill="#000000" fill-opacity="1"><g transform="translate(298.336488, 73.140496)"><g><path d="M 2.921875 0.109375 C 2.617188 0.109375 2.3125 0.0703125 2 0 C 1.6875 -0.0820312 1.398438 -0.21875 1.140625 -0.40625 C 0.890625 -0.601562 0.6875 -0.863281 0.53125 -1.1875 C 0.375 -1.507812 0.296875 -1.914062 0.296875 -2.40625 C 0.296875 -2.625 0.316406 -2.882812 0.359375 -3.1875 C 0.410156 -3.5 0.5 -3.816406 0.625 -4.140625 C 0.75 -4.472656 0.929688 -4.78125 1.171875 -5.0625 C 1.410156 -5.351562 1.71875 -5.582031 2.09375 -5.75 C 2.476562 -5.925781 2.945312 -6.015625 3.5 -6.015625 C 4 -6.015625 4.394531 -5.941406 4.6875 -5.796875 C 4.976562 -5.648438 5.1875 -5.453125 5.3125 -5.203125 C 5.445312 -4.960938 5.515625 -4.695312 5.515625 -4.40625 C 5.515625 -4.007812 5.421875 -3.679688 5.234375 -3.421875 C 5.054688 -3.171875 4.820312 -2.96875 4.53125 -2.8125 C 4.25 -2.664062 3.945312 -2.554688 3.625 -2.484375 C 3.3125 -2.421875 3.019531 -2.378906 2.75 -2.359375 C 2.488281 -2.335938 2.289062 -2.328125 2.15625 -2.328125 C 2.15625 -2.054688 2.234375 -1.804688 2.390625 -1.578125 C 2.546875 -1.347656 2.804688 -1.234375 3.171875 -1.234375 C 3.359375 -1.234375 3.503906 -1.265625 3.609375 -1.328125 C 3.710938 -1.390625 3.796875 -1.457031 3.859375 -1.53125 C 3.921875 -1.601562 3.976562 -1.671875 4.03125 -1.734375 C 4.082031 -1.796875 4.144531 -1.828125 4.21875 -1.828125 C 4.269531 -1.828125 4.359375 -1.804688 4.484375 -1.765625 C 4.609375 -1.734375 4.726562 -1.660156 4.84375 -1.546875 C 4.96875 -1.441406 5.03125 -1.28125 5.03125 -1.0625 C 5.03125 -0.78125 4.921875 -0.550781 4.703125 -0.375 C 4.484375 -0.207031 4.210938 -0.0820312 3.890625 0 C 3.566406 0.0703125 3.242188 0.109375 2.921875 0.109375 Z M 3.125 -4.59375 C 2.914062 -4.59375 2.742188 -4.519531 2.609375 -4.375 C 2.484375 -4.226562 2.382812 -4.046875 2.3125 -3.828125 C 2.25 -3.609375 2.207031 -3.394531 2.1875 -3.1875 C 2.625 -3.195312 2.976562 -3.273438 3.25 -3.421875 C 3.53125 -3.566406 3.671875 -3.769531 3.671875 -4.03125 C 3.671875 -4.175781 3.625 -4.304688 3.53125 -4.421875 C 3.445312 -4.535156 3.3125 -4.59375 3.125 -4.59375 Z M 3.125 -4.59375 "/></g></g></g><g fill="#000000" fill-opacity="1"><g transform="translate(304.053744, 73.140496)"><g/></g></g><g fill="#000000" fill-opacity="1"><g transform="translate(306.364287, 73.140496)"><g><path d="M 2.40625 0.109375 C 2.03125 0.109375 1.679688 0.0195312 1.359375 -0.15625 C 1.046875 -0.34375 0.796875 -0.628906 0.609375 -1.015625 C 0.421875 -1.410156 0.328125 -1.914062 0.328125 -2.53125 C 0.328125 -2.78125 0.347656 -3.054688 0.390625 -3.359375 C 0.429688 -3.671875 0.503906 -3.984375 0.609375 -4.296875 C 0.722656 -4.609375 0.878906 -4.894531 1.078125 -5.15625 C 1.285156 -5.414062 1.546875 -5.625 1.859375 -5.78125 C 2.171875 -5.9375 2.546875 -6.015625 2.984375 -6.015625 C 3.347656 -6.015625 3.640625 -5.953125 3.859375 -5.828125 C 4.078125 -5.703125 4.210938 -5.488281 4.265625 -5.1875 C 4.285156 -5.550781 4.304688 -5.859375 4.328125 -6.109375 C 4.347656 -6.367188 4.363281 -6.613281 4.375 -6.84375 C 4.394531 -7.070312 4.410156 -7.335938 4.421875 -7.640625 C 4.429688 -7.796875 4.453125 -7.890625 4.484375 -7.921875 C 4.503906 -7.941406 4.5625 -7.953125 4.65625 -7.953125 L 5.078125 -7.953125 C 5.503906 -7.953125 5.796875 -7.859375 5.953125 -7.671875 C 6.109375 -7.484375 6.1875 -7.269531 6.1875 -7.03125 C 6.1875 -7.03125 6.175781 -6.914062 6.15625 -6.6875 C 6.144531 -6.46875 6.125 -6.164062 6.09375 -5.78125 C 6.070312 -5.40625 6.039062 -4.988281 6 -4.53125 C 5.96875 -4.082031 5.9375 -3.625 5.90625 -3.15625 C 5.875 -2.695312 5.84375 -2.257812 5.8125 -1.84375 C 5.78125 -1.425781 5.75 -1.070312 5.71875 -0.78125 C 5.695312 -0.5 5.679688 -0.3125 5.671875 -0.21875 C 5.671875 -0.132812 5.65625 -0.078125 5.625 -0.046875 C 5.601562 -0.015625 5.539062 0 5.4375 0 L 5.046875 0 C 4.742188 0 4.488281 -0.0507812 4.28125 -0.15625 C 4.082031 -0.269531 3.984375 -0.488281 3.984375 -0.8125 C 3.847656 -0.539062 3.648438 -0.316406 3.390625 -0.140625 C 3.128906 0.0234375 2.800781 0.109375 2.40625 0.109375 Z M 3.34375 -4.59375 C 2.976562 -4.59375 2.707031 -4.429688 2.53125 -4.109375 C 2.351562 -3.796875 2.265625 -3.367188 2.265625 -2.828125 C 2.265625 -2.585938 2.285156 -2.347656 2.328125 -2.109375 C 2.378906 -1.878906 2.46875 -1.691406 2.59375 -1.546875 C 2.71875 -1.398438 2.894531 -1.328125 3.125 -1.328125 C 3.4375 -1.328125 3.695312 -1.476562 3.90625 -1.78125 C 4.113281 -2.082031 4.21875 -2.550781 4.21875 -3.1875 C 4.21875 -3.4375 4.191406 -3.664062 4.140625 -3.875 C 4.097656 -4.082031 4.015625 -4.253906 3.890625 -4.390625 C 3.765625 -4.523438 3.582031 -4.59375 3.34375 -4.59375 Z M 3.34375 -4.59375 "/></g></g></g><g fill="#000000" fill-opacity="1"><g transform="translate(312.89829, 73.140496)"><g><path d="M 1.9375 0 L 1.546875 0 C 1.109375 0 0.816406 -0.0859375 0.671875 -0.265625 C 0.523438 -0.441406 0.453125 -0.691406 0.453125 -1.015625 C 0.453125 -1.128906 0.457031 -1.285156 0.46875 -1.484375 C 0.476562 -1.679688 0.492188 -1.953125 0.515625 -2.296875 C 0.546875 -2.640625 0.582031 -3.078125 0.625 -3.609375 C 0.664062 -4.148438 0.71875 -4.8125 0.78125 -5.59375 C 0.78125 -5.757812 0.796875 -5.851562 0.828125 -5.875 C 0.847656 -5.894531 0.90625 -5.90625 1 -5.90625 L 1.421875 -5.90625 C 1.859375 -5.90625 2.148438 -5.816406 2.296875 -5.640625 C 2.441406 -5.472656 2.515625 -5.238281 2.515625 -4.9375 C 2.515625 -4.800781 2.503906 -4.554688 2.484375 -4.203125 C 2.460938 -3.859375 2.425781 -3.363281 2.375 -2.71875 C 2.320312 -2.082031 2.253906 -1.25 2.171875 -0.21875 C 2.160156 -0.132812 2.140625 -0.078125 2.109375 -0.046875 C 2.085938 -0.015625 2.03125 0 1.9375 0 Z M 0.78125 -7.1875 C 0.78125 -7.46875 0.882812 -7.691406 1.09375 -7.859375 C 1.300781 -8.023438 1.582031 -8.109375 1.9375 -8.109375 C 2.238281 -8.109375 2.457031 -8.046875 2.59375 -7.921875 C 2.738281 -7.796875 2.8125 -7.628906 2.8125 -7.421875 C 2.8125 -7.148438 2.710938 -6.925781 2.515625 -6.75 C 2.316406 -6.582031 2.03125 -6.5 1.65625 -6.5 C 1.070312 -6.5 0.78125 -6.726562 0.78125 -7.1875 Z M 0.78125 -7.1875 "/></g></g></g><g fill="#000000" fill-opacity="1"><g transform="translate(315.918118, 73.140496)"><g><path d="M 2.953125 -6.015625 C 3.546875 -6.015625 3.988281 -5.894531 4.28125 -5.65625 C 4.570312 -5.414062 4.71875 -5.109375 4.71875 -4.734375 C 4.71875 -4.429688 4.617188 -4.191406 4.421875 -4.015625 C 4.222656 -3.847656 3.9375 -3.765625 3.5625 -3.765625 C 3.46875 -3.765625 3.398438 -3.773438 3.359375 -3.796875 C 3.328125 -3.828125 3.3125 -3.867188 3.3125 -3.921875 C 3.3125 -4.003906 3.296875 -4.101562 3.265625 -4.21875 C 3.242188 -4.332031 3.191406 -4.429688 3.109375 -4.515625 C 3.023438 -4.597656 2.882812 -4.640625 2.6875 -4.640625 C 2.488281 -4.640625 2.328125 -4.59375 2.203125 -4.5 C 2.078125 -4.40625 2.015625 -4.285156 2.015625 -4.140625 C 2.015625 -3.984375 2.078125 -3.859375 2.203125 -3.765625 C 2.328125 -3.679688 2.488281 -3.601562 2.6875 -3.53125 C 2.882812 -3.457031 3.085938 -3.375 3.296875 -3.28125 C 3.515625 -3.195312 3.722656 -3.085938 3.921875 -2.953125 C 4.117188 -2.828125 4.273438 -2.660156 4.390625 -2.453125 C 4.515625 -2.242188 4.578125 -1.976562 4.578125 -1.65625 C 4.578125 -1.132812 4.390625 -0.707031 4.015625 -0.375 C 3.648438 -0.0507812 3.109375 0.109375 2.390625 0.109375 C 2.179688 0.109375 1.945312 0.09375 1.6875 0.0625 C 1.4375 0.03125 1.1875 -0.015625 0.9375 -0.078125 C 0.695312 -0.148438 0.5 -0.242188 0.34375 -0.359375 C 0.1875 -0.472656 0.109375 -0.617188 0.109375 -0.796875 C 0.109375 -0.878906 0.128906 -0.984375 0.171875 -1.109375 C 0.222656 -1.242188 0.296875 -1.359375 0.390625 -1.453125 C 0.484375 -1.554688 0.597656 -1.609375 0.734375 -1.609375 C 0.847656 -1.609375 0.953125 -1.578125 1.046875 -1.515625 C 1.140625 -1.453125 1.265625 -1.382812 1.421875 -1.3125 C 1.585938 -1.25 1.832031 -1.21875 2.15625 -1.21875 C 2.332031 -1.21875 2.488281 -1.238281 2.625 -1.28125 C 2.769531 -1.320312 2.84375 -1.414062 2.84375 -1.5625 C 2.84375 -1.707031 2.785156 -1.816406 2.671875 -1.890625 C 2.554688 -1.972656 2.40625 -2.046875 2.21875 -2.109375 C 2.039062 -2.179688 1.851562 -2.257812 1.65625 -2.34375 C 1.457031 -2.4375 1.269531 -2.546875 1.09375 -2.671875 C 0.914062 -2.804688 0.769531 -2.984375 0.65625 -3.203125 C 0.539062 -3.421875 0.484375 -3.695312 0.484375 -4.03125 C 0.484375 -4.394531 0.550781 -4.703125 0.6875 -4.953125 C 0.832031 -5.210938 1.023438 -5.421875 1.265625 -5.578125 C 1.515625 -5.734375 1.78125 -5.84375 2.0625 -5.90625 C 2.351562 -5.976562 2.648438 -6.015625 2.953125 -6.015625 Z M 2.953125 -6.015625 "/></g></g></g><g fill="#000000" fill-opacity="1"><g transform="translate(320.969079, 73.140496)"><g><path d="M 3.15625 -1.328125 C 3.425781 -1.328125 3.65625 -1.375 3.84375 -1.46875 C 4.03125 -1.5625 4.179688 -1.648438 4.296875 -1.734375 C 4.421875 -1.828125 4.519531 -1.875 4.59375 -1.875 C 4.757812 -1.875 4.84375 -1.769531 4.84375 -1.5625 C 4.84375 -1.5 4.820312 -1.398438 4.78125 -1.265625 C 4.75 -1.128906 4.707031 -1 4.65625 -0.875 C 4.601562 -0.75 4.550781 -0.660156 4.5 -0.609375 C 4.457031 -0.554688 4.359375 -0.472656 4.203125 -0.359375 C 4.054688 -0.242188 3.859375 -0.132812 3.609375 -0.03125 C 3.367188 0.0625 3.085938 0.109375 2.765625 0.109375 C 2.492188 0.109375 2.210938 0.0664062 1.921875 -0.015625 C 1.640625 -0.109375 1.375 -0.253906 1.125 -0.453125 C 0.882812 -0.648438 0.6875 -0.921875 0.53125 -1.265625 C 0.382812 -1.617188 0.3125 -2.054688 0.3125 -2.578125 C 0.3125 -2.796875 0.332031 -3.054688 0.375 -3.359375 C 0.414062 -3.660156 0.492188 -3.960938 0.609375 -4.265625 C 0.722656 -4.578125 0.890625 -4.863281 1.109375 -5.125 C 1.328125 -5.394531 1.613281 -5.609375 1.96875 -5.765625 C 2.320312 -5.929688 2.753906 -6.015625 3.265625 -6.015625 C 3.972656 -6.015625 4.488281 -5.863281 4.8125 -5.5625 C 5.132812 -5.257812 5.296875 -4.894531 5.296875 -4.46875 C 5.296875 -4.082031 5.171875 -3.796875 4.921875 -3.609375 C 4.679688 -3.429688 4.34375 -3.34375 3.90625 -3.34375 C 3.789062 -3.34375 3.710938 -3.347656 3.671875 -3.359375 C 3.640625 -3.378906 3.625 -3.425781 3.625 -3.5 C 3.613281 -3.84375 3.585938 -4.109375 3.546875 -4.296875 C 3.515625 -4.492188 3.375 -4.59375 3.125 -4.59375 C 2.90625 -4.59375 2.726562 -4.519531 2.59375 -4.375 C 2.457031 -4.238281 2.359375 -4.0625 2.296875 -3.84375 C 2.234375 -3.632812 2.191406 -3.425781 2.171875 -3.21875 C 2.148438 -3.007812 2.140625 -2.832031 2.140625 -2.6875 C 2.140625 -2.175781 2.21875 -1.820312 2.375 -1.625 C 2.539062 -1.425781 2.800781 -1.328125 3.15625 -1.328125 Z M 3.15625 -1.328125 "/></g></g></g><g fill="#000000" fill-opacity="1"><g transform="translate(326.428407, 73.140496)"><g><path d="M 2.84375 0.109375 C 2.195312 0.109375 1.6875 -0.0078125 1.3125 -0.25 C 0.945312 -0.488281 0.6875 -0.8125 0.53125 -1.21875 C 0.382812 -1.632812 0.3125 -2.085938 0.3125 -2.578125 C 0.3125 -3.003906 0.363281 -3.425781 0.46875 -3.84375 C 0.582031 -4.257812 0.757812 -4.628906 1 -4.953125 C 1.238281 -5.273438 1.566406 -5.53125 1.984375 -5.71875 C 2.398438 -5.914062 2.914062 -6.015625 3.53125 -6.015625 C 4.4375 -6.015625 5.082031 -5.796875 5.46875 -5.359375 C 5.863281 -4.921875 6.0625 -4.300781 6.0625 -3.5 C 6.0625 -3.226562 6.035156 -2.929688 5.984375 -2.609375 C 5.929688 -2.285156 5.835938 -1.960938 5.703125 -1.640625 C 5.566406 -1.328125 5.378906 -1.035156 5.140625 -0.765625 C 4.898438 -0.503906 4.59375 -0.289062 4.21875 -0.125 C 3.84375 0.03125 3.382812 0.109375 2.84375 0.109375 Z M 3.359375 -4.59375 C 3.085938 -4.59375 2.867188 -4.523438 2.703125 -4.390625 C 2.546875 -4.253906 2.425781 -4.082031 2.34375 -3.875 C 2.257812 -3.664062 2.203125 -3.453125 2.171875 -3.234375 C 2.148438 -3.023438 2.140625 -2.847656 2.140625 -2.703125 C 2.140625 -2.222656 2.210938 -1.875 2.359375 -1.65625 C 2.515625 -1.4375 2.734375 -1.328125 3.015625 -1.328125 C 3.265625 -1.328125 3.46875 -1.398438 3.625 -1.546875 C 3.789062 -1.703125 3.914062 -1.894531 4 -2.125 C 4.09375 -2.351562 4.15625 -2.585938 4.1875 -2.828125 C 4.21875 -3.066406 4.234375 -3.269531 4.234375 -3.4375 C 4.234375 -3.800781 4.164062 -4.082031 4.03125 -4.28125 C 3.894531 -4.488281 3.671875 -4.59375 3.359375 -4.59375 Z M 3.359375 -4.59375 "/></g></g></g><g fill="#000000" fill-opacity="1"><g transform="translate(332.854948, 73.140496)"><g><path d="M 2.5 -5 C 2.5 -4.84375 2.484375 -4.628906 2.453125 -4.359375 C 2.429688 -4.097656 2.40625 -3.8125 2.375 -3.5 C 2.34375 -3.195312 2.316406 -2.921875 2.296875 -2.671875 C 2.273438 -2.421875 2.265625 -2.238281 2.265625 -2.125 C 2.265625 -1.882812 2.328125 -1.691406 2.453125 -1.546875 C 2.578125 -1.398438 2.753906 -1.328125 2.984375 -1.328125 C 3.210938 -1.328125 3.398438 -1.429688 3.546875 -1.640625 C 3.691406 -1.859375 3.800781 -2.132812 3.875 -2.46875 C 3.957031 -2.8125 4.019531 -3.179688 4.0625 -3.578125 C 4.101562 -3.972656 4.132812 -4.359375 4.15625 -4.734375 C 4.175781 -5.109375 4.195312 -5.429688 4.21875 -5.703125 C 4.226562 -5.753906 4.25 -5.800781 4.28125 -5.84375 C 4.320312 -5.882812 4.382812 -5.90625 4.46875 -5.90625 L 4.84375 -5.90625 C 5.289062 -5.90625 5.582031 -5.816406 5.71875 -5.640625 C 5.863281 -5.472656 5.9375 -5.222656 5.9375 -4.890625 C 5.9375 -4.785156 5.929688 -4.632812 5.921875 -4.4375 C 5.910156 -4.238281 5.890625 -3.96875 5.859375 -3.625 C 5.835938 -3.28125 5.804688 -2.835938 5.765625 -2.296875 C 5.722656 -1.765625 5.675781 -1.101562 5.625 -0.3125 C 5.613281 -0.164062 5.597656 -0.078125 5.578125 -0.046875 C 5.554688 -0.015625 5.492188 0 5.390625 0 L 4.984375 0 C 4.546875 0 4.25 -0.0859375 4.09375 -0.265625 C 3.945312 -0.441406 3.867188 -0.644531 3.859375 -0.875 C 3.640625 -0.507812 3.378906 -0.253906 3.078125 -0.109375 C 2.785156 0.0351562 2.492188 0.109375 2.203125 0.109375 C 1.835938 0.109375 1.523438 0.0351562 1.265625 -0.109375 C 1.003906 -0.265625 0.804688 -0.472656 0.671875 -0.734375 C 0.535156 -0.992188 0.46875 -1.28125 0.46875 -1.59375 C 0.46875 -1.707031 0.472656 -1.894531 0.484375 -2.15625 C 0.503906 -2.425781 0.523438 -2.734375 0.546875 -3.078125 C 0.578125 -3.429688 0.601562 -3.78125 0.625 -4.125 C 0.65625 -4.46875 0.679688 -4.769531 0.703125 -5.03125 C 0.722656 -5.289062 0.734375 -5.472656 0.734375 -5.578125 C 0.753906 -5.703125 0.785156 -5.785156 0.828125 -5.828125 C 0.867188 -5.878906 0.941406 -5.90625 1.046875 -5.90625 L 1.390625 -5.90625 C 1.828125 -5.90625 2.117188 -5.820312 2.265625 -5.65625 C 2.421875 -5.5 2.5 -5.28125 2.5 -5 Z M 2.5 -5 "/></g></g></g><g fill="#000000" fill-opacity="1"><g transform="translate(339.302984, 73.140496)"><g><path d="M 4.109375 -0.953125 C 4.109375 -1.109375 4.117188 -1.3125 4.140625 -1.5625 C 4.160156 -1.8125 4.1875 -2.082031 4.21875 -2.375 C 4.25 -2.664062 4.273438 -2.941406 4.296875 -3.203125 C 4.316406 -3.460938 4.328125 -3.679688 4.328125 -3.859375 C 4.328125 -4.046875 4.28125 -4.210938 4.1875 -4.359375 C 4.101562 -4.503906 3.929688 -4.578125 3.671875 -4.578125 C 3.429688 -4.578125 3.226562 -4.515625 3.0625 -4.390625 C 2.894531 -4.265625 2.753906 -4.039062 2.640625 -3.71875 C 2.523438 -3.40625 2.429688 -2.960938 2.359375 -2.390625 C 2.285156 -1.828125 2.21875 -1.101562 2.15625 -0.21875 C 2.15625 -0.132812 2.140625 -0.078125 2.109375 -0.046875 C 2.078125 -0.015625 2.015625 0 1.921875 0 L 1.53125 0 C 1.09375 0 0.800781 -0.0859375 0.65625 -0.265625 C 0.507812 -0.441406 0.4375 -0.691406 0.4375 -1.015625 C 0.4375 -1.128906 0.441406 -1.285156 0.453125 -1.484375 C 0.460938 -1.679688 0.484375 -1.953125 0.515625 -2.296875 C 0.546875 -2.640625 0.578125 -3.078125 0.609375 -3.609375 C 0.648438 -4.148438 0.703125 -4.8125 0.765625 -5.59375 C 0.773438 -5.757812 0.789062 -5.851562 0.8125 -5.875 C 0.832031 -5.894531 0.890625 -5.90625 0.984375 -5.90625 L 1.40625 -5.90625 C 1.695312 -5.90625 1.921875 -5.863281 2.078125 -5.78125 C 2.234375 -5.695312 2.34375 -5.585938 2.40625 -5.453125 C 2.476562 -5.316406 2.519531 -5.171875 2.53125 -5.015625 C 2.757812 -5.390625 3.015625 -5.648438 3.296875 -5.796875 C 3.578125 -5.941406 3.929688 -6.015625 4.359375 -6.015625 C 4.960938 -6.015625 5.410156 -5.875 5.703125 -5.59375 C 5.992188 -5.3125 6.140625 -4.804688 6.140625 -4.078125 C 6.140625 -3.941406 6.128906 -3.734375 6.109375 -3.453125 C 6.085938 -3.179688 6.0625 -2.882812 6.03125 -2.5625 C 6.007812 -2.238281 5.984375 -1.921875 5.953125 -1.609375 C 5.921875 -1.296875 5.894531 -1.019531 5.875 -0.78125 C 5.851562 -0.550781 5.84375 -0.398438 5.84375 -0.328125 C 5.84375 -0.171875 5.820312 -0.078125 5.78125 -0.046875 C 5.75 -0.015625 5.675781 0 5.5625 0 L 5.21875 0 C 4.757812 0 4.457031 -0.0820312 4.3125 -0.25 C 4.175781 -0.414062 4.109375 -0.648438 4.109375 -0.953125 Z M 4.109375 -0.953125 "/></g></g></g><g fill="#000000" fill-opacity="1"><g transform="translate(345.955204, 73.140496)"><g><path d="M 3.328125 -4.46875 L 2.75 -4.46875 C 2.71875 -4.101562 2.6875 -3.742188 2.65625 -3.390625 C 2.625 -3.046875 2.597656 -2.734375 2.578125 -2.453125 C 2.554688 -2.179688 2.546875 -1.976562 2.546875 -1.84375 C 2.546875 -1.65625 2.566406 -1.53125 2.609375 -1.46875 C 2.660156 -1.40625 2.734375 -1.375 2.828125 -1.375 C 2.929688 -1.375 3.019531 -1.394531 3.09375 -1.4375 C 3.164062 -1.488281 3.226562 -1.535156 3.28125 -1.578125 C 3.332031 -1.628906 3.394531 -1.65625 3.46875 -1.65625 C 3.507812 -1.65625 3.550781 -1.625 3.59375 -1.5625 C 3.644531 -1.507812 3.671875 -1.378906 3.671875 -1.171875 C 3.671875 -0.773438 3.5625 -0.460938 3.34375 -0.234375 C 3.125 -0.00390625 2.753906 0.109375 2.234375 0.109375 C 1.222656 0.109375 0.71875 -0.378906 0.71875 -1.359375 C 0.71875 -1.503906 0.726562 -1.6875 0.75 -1.90625 C 0.769531 -2.132812 0.796875 -2.445312 0.828125 -2.84375 C 0.867188 -3.25 0.914062 -3.789062 0.96875 -4.46875 L 0.390625 -4.46875 C 0.347656 -4.46875 0.316406 -4.476562 0.296875 -4.5 C 0.285156 -4.519531 0.28125 -4.554688 0.28125 -4.609375 L 0.3125 -5.15625 C 0.320312 -5.28125 0.34375 -5.398438 0.375 -5.515625 C 0.414062 -5.628906 0.488281 -5.722656 0.59375 -5.796875 C 0.695312 -5.867188 0.859375 -5.90625 1.078125 -5.90625 C 1.128906 -6.039062 1.1875 -6.195312 1.25 -6.375 C 1.320312 -6.550781 1.390625 -6.722656 1.453125 -6.890625 C 1.515625 -7.066406 1.578125 -7.210938 1.640625 -7.328125 C 1.703125 -7.441406 1.757812 -7.5 1.8125 -7.5 L 2.125 -7.5 C 2.414062 -7.5 2.617188 -7.40625 2.734375 -7.21875 C 2.847656 -7.03125 2.90625 -6.804688 2.90625 -6.546875 C 2.90625 -6.398438 2.894531 -6.1875 2.875 -5.90625 L 4.015625 -5.90625 C 4.128906 -5.90625 4.1875 -5.859375 4.1875 -5.765625 L 4.140625 -5.1875 C 4.128906 -4.96875 4.070312 -4.789062 3.96875 -4.65625 C 3.863281 -4.53125 3.648438 -4.46875 3.328125 -4.46875 Z M 3.328125 -4.46875 "/></g></g></g><g fill="#000000" fill-opacity="1"><g transform="translate(350.243149, 73.140496)"><g><path d="M 1.359375 -1.90625 C 1.660156 -1.90625 1.875 -1.832031 2 -1.6875 C 2.132812 -1.539062 2.203125 -1.335938 2.203125 -1.078125 C 2.203125 -0.921875 2.175781 -0.75 2.125 -0.5625 C 2.070312 -0.382812 1.96875 -0.226562 1.8125 -0.09375 C 1.664062 0.0390625 1.441406 0.109375 1.140625 0.109375 C 0.816406 0.109375 0.597656 0.0234375 0.484375 -0.140625 C 0.367188 -0.316406 0.3125 -0.53125 0.3125 -0.78125 C 0.3125 -0.96875 0.34375 -1.144531 0.40625 -1.3125 C 0.46875 -1.488281 0.578125 -1.628906 0.734375 -1.734375 C 0.890625 -1.847656 1.097656 -1.90625 1.359375 -1.90625 Z M 1.984375 -2.671875 L 1.609375 -2.671875 C 1.253906 -2.671875 1.015625 -2.753906 0.890625 -2.921875 C 0.773438 -3.097656 0.71875 -3.363281 0.71875 -3.71875 C 0.71875 -3.820312 0.722656 -3.9375 0.734375 -4.0625 C 0.742188 -4.1875 0.757812 -4.378906 0.78125 -4.640625 C 0.800781 -4.898438 0.828125 -5.265625 0.859375 -5.734375 C 0.898438 -6.210938 0.945312 -6.847656 1 -7.640625 C 1.007812 -7.796875 1.023438 -7.890625 1.046875 -7.921875 C 1.066406 -7.941406 1.125 -7.953125 1.21875 -7.953125 L 1.859375 -7.953125 C 2.253906 -7.953125 2.535156 -7.875 2.703125 -7.71875 C 2.867188 -7.570312 2.953125 -7.394531 2.953125 -7.1875 C 2.953125 -7.03125 2.929688 -6.816406 2.890625 -6.546875 C 2.859375 -6.285156 2.8125 -5.988281 2.75 -5.65625 C 2.695312 -5.320312 2.632812 -4.984375 2.5625 -4.640625 C 2.5 -4.296875 2.4375 -3.972656 2.375 -3.671875 C 2.320312 -3.367188 2.269531 -3.101562 2.21875 -2.875 C 2.207031 -2.789062 2.1875 -2.734375 2.15625 -2.703125 C 2.125 -2.679688 2.066406 -2.671875 1.984375 -2.671875 Z M 1.984375 -2.671875 "/></g></g></g></svg>