<svg xmlns="http://www.w3.org/2000/svg" xmlns:xlink="http://www.w3.org/1999/xlink" width="500" zoomAndPan="magnify" viewBox="0 0 375 374.999991" height="500" preserveAspectRatio="xMidYMid meet" version="1.0"><defs><filter x="0%" y="0%" width="100%" height="100%" id="6fe07e9b0e"><feColorMatrix values="0 0 0 0 1 0 0 0 0 1 0 0 0 0 1 0 0 0 1 0" color-interpolation-filters="sRGB"/></filter><mask id="5d2936b2bf"><g filter="url(#6fe07e9b0e)"><rect x="-37.5" width="450" fill="#000000" y="-37.499999" height="449.999989" fill-opacity="0.2"/></g></mask><clipPath id="6a61832282"><path d="M 0 0 L 375 0 L 375 374.160156 L 0 374.160156 Z M 0 0 " clip-rule="nonzero"/></clipPath><clipPath id="687e760720"><rect x="0" width="375" y="0" height="375"/></clipPath></defs><g mask="url(#5d2936b2bf)"><g transform="matrix(1, 0, 0, 1, 0, 0)"><g clip-path="url(#687e760720)"><g clip-path="url(#6a61832282)"><path fill="#c49736" d="M 194.945312 234.34375 L 374.925781 105.304688 L 227.53125 139.613281 L 209.109375 0 L 116.671875 165.417969 L 44.082031 182.316406 L 88.59375 215.660156 L 0.0742188 374.0625 L 153.351562 264.164062 L 253.902344 339.484375 L 248.167969 296.023438 L 154.160156 231.191406 L 87.304688 281.332031 L 177.675781 119.449219 Z M 194.945312 234.34375 " fill-opacity="1" fill-rule="evenodd"/></g></g></g></g></svg>